<?xml version="1.0" encoding="UTF-8"?>
<svg xmlns="http://www.w3.org/2000/svg" viewBox="0 0 1200 630" width="1200" height="630">
    <rect x="0" y="0" width="1200" height="173" fill="rgba(240,240,240,1.000)"/>
    <path d="M16.78125 -0 L16.78125 -45.078125 L0.859375 -45.078125 L0.859375 -51.125 L38.875 -51.125 L38.875 -45.078125 L22.96875 -45.078125 L22.96875 -0 Z " fill="rgba(0,0,0,1.000)" transform="matrix(1,0,0,1,90.02405,68)"/>
    <path d="M20.65625 0.859375 Q15.265625 0.859375,11.34375 -1.578125 Q7.421875 -4.03125,5.296875 -8.53125 Q3.171875 -13.03125,3.171875 -19.078125 Q3.171875 -25.125,5.296875 -29.59375 Q7.421875 -34.0625,11.265625 -36.546875 Q15.125 -39.03125,20.375 -39.03125 Q25.34375 -39.03125,29.15625 -36.6875 Q32.96875 -34.34375,35.09375 -29.875 Q37.21875 -25.421875,37.21875 -19.015625 L37.21875 -17.203125 L9.5 -17.203125 Q9.859375 -11.09375,12.78125 -7.984375 Q15.703125 -4.890625,20.65625 -4.890625 Q24.40625 -4.890625,26.8125 -6.65625 Q29.234375 -8.421875,30.171875 -11.296875 L36.640625 -10.796875 Q35.140625 -5.6875,30.921875 -2.40625 Q26.71875 0.859375,20.65625 0.859375 Z M9.5 -22.53125 L30.59375 -22.53125 Q30.171875 -28.078125,27.390625 -30.671875 Q24.625 -33.265625,20.375 -33.265625 Q15.984375 -33.265625,13.140625 -30.5625 Q10.296875 -27.859375,9.5 -22.53125 Z " fill="rgba(0,0,0,1.000)" transform="matrix(1,0,0,1,124.00804,68)"/>
    <path d="M3.390625 -0 L17.421875 -19.578125 L4.109375 -38.15625 L11.15625 -38.15625 L21.171875 -23.765625 L30.890625 -38.15625 L38.09375 -38.15625 L24.90625 -19.4375 L38.734375 -0 L31.6875 -0 L21.171875 -15.40625 L10.578125 -0 Z " fill="rgba(0,0,0,1.000)" transform="matrix(1,0,0,1,160.80005,68)"/>
    <path d="M19.734375 -0 Q14.546875 -0,12.0625 -2.375 Q9.578125 -4.75,9.578125 -9.796875 L9.578125 -47.09375 L15.625 -47.09375 L15.625 -9.9375 Q15.625 -7.34375,16.765625 -6.328125 Q17.921875 -5.328125,20.296875 -5.328125 L25.78125 -5.328125 L25.78125 -0 Z M3.953125 -32.828125 L3.953125 -38.15625 L25.78125 -38.15625 L25.78125 -32.828125 Z " fill="rgba(0,0,0,1.000)" transform="matrix(1,0,0,1,199.10405,68)"/>
    <path d="" fill="rgba(0,0,0,1.000)" transform="matrix(1,0,0,1,227.32805,68)"/>
    <path d="M6.625 -0 L6.625 -51.125 L22.46875 -51.125 Q34.265625 -51.125,40.640625 -44.453125 Q47.015625 -37.796875,47.015625 -25.484375 Q47.015625 -13.25,40.75 -6.625 Q34.484375 -0,22.890625 -0 Z M12.8125 -6.046875 L22.46875 -6.046875 Q31.46875 -6.046875,36 -10.90625 Q40.53125 -15.765625,40.53125 -25.484375 Q40.53125 -35.359375,36 -40.21875 Q31.46875 -45.078125,22.46875 -45.078125 L12.8125 -45.078125 Z " fill="rgba(0,0,0,1.000)" transform="matrix(1,0,0,1,245.32805,68)"/>
    <path d="M20.65625 0.859375 Q15.265625 0.859375,11.34375 -1.578125 Q7.421875 -4.03125,5.296875 -8.53125 Q3.171875 -13.03125,3.171875 -19.078125 Q3.171875 -25.125,5.296875 -29.59375 Q7.421875 -34.0625,11.265625 -36.546875 Q15.125 -39.03125,20.375 -39.03125 Q25.34375 -39.03125,29.15625 -36.6875 Q32.96875 -34.34375,35.09375 -29.875 Q37.21875 -25.421875,37.21875 -19.015625 L37.21875 -17.203125 L9.5 -17.203125 Q9.859375 -11.09375,12.78125 -7.984375 Q15.703125 -4.890625,20.65625 -4.890625 Q24.40625 -4.890625,26.8125 -6.65625 Q29.234375 -8.421875,30.171875 -11.296875 L36.640625 -10.796875 Q35.140625 -5.6875,30.921875 -2.40625 Q26.71875 0.859375,20.65625 0.859375 Z M9.5 -22.53125 L30.59375 -22.53125 Q30.171875 -28.078125,27.390625 -30.671875 Q24.625 -33.265625,20.375 -33.265625 Q15.984375 -33.265625,13.140625 -30.5625 Q10.296875 -27.859375,9.5 -22.53125 Z " fill="rgba(0,0,0,1.000)" transform="matrix(1,0,0,1,296.59204,68)"/>
    <path d="M20.65625 0.859375 Q15.34375 0.859375,11.40625 -1.578125 Q7.484375 -4.03125,5.328125 -8.53125 Q3.171875 -13.03125,3.171875 -19.078125 Q3.171875 -25.125,5.328125 -29.59375 Q7.484375 -34.0625,11.40625 -36.546875 Q15.34375 -39.03125,20.65625 -39.03125 Q25.0625 -39.03125,28.46875 -37.46875 Q31.890625 -35.921875,34.046875 -32.96875 Q36.21875 -30.03125,36.859375 -25.78125 L30.53125 -25.34375 Q29.875 -29.15625,27.203125 -31.203125 Q24.546875 -33.265625,20.65625 -33.265625 Q15.40625 -33.265625,12.453125 -29.484375 Q9.5 -25.703125,9.5 -19.078125 Q9.5 -12.453125,12.453125 -8.671875 Q15.40625 -4.890625,20.65625 -4.890625 Q24.546875 -4.890625,27.203125 -7.046875 Q29.875 -9.21875,30.53125 -13.53125 L36.859375 -13.109375 Q36.21875 -8.859375,34.046875 -5.71875 Q31.890625 -2.59375,28.46875 -0.859375 Q25.0625 0.859375,20.65625 0.859375 Z " fill="rgba(0,0,0,1.000)" transform="matrix(1,0,0,1,336.26404,68)"/>
    <path d="M20.65625 0.859375 Q15.40625 0.859375,11.4375 -1.578125 Q7.484375 -4.03125,5.328125 -8.53125 Q3.171875 -13.03125,3.171875 -19.078125 Q3.171875 -25.203125,5.328125 -29.65625 Q7.484375 -34.125,11.4375 -36.578125 Q15.40625 -39.03125,20.65625 -39.03125 Q25.921875 -39.03125,29.84375 -36.578125 Q33.765625 -34.125,35.921875 -29.65625 Q38.09375 -25.203125,38.09375 -19.078125 Q38.09375 -13.03125,35.921875 -8.53125 Q33.765625 -4.03125,29.84375 -1.578125 Q25.921875 0.859375,20.65625 0.859375 Z M20.65625 -4.890625 Q25.921875 -4.890625,28.828125 -8.671875 Q31.75 -12.453125,31.75 -19.078125 Q31.75 -25.703125,28.828125 -29.484375 Q25.921875 -33.265625,20.65625 -33.265625 Q15.40625 -33.265625,12.453125 -29.484375 Q9.5 -25.703125,9.5 -19.078125 Q9.5 -12.453125,12.453125 -8.671875 Q15.40625 -4.890625,20.65625 -4.890625 Z " fill="rgba(0,0,0,1.000)" transform="matrix(1,0,0,1,374.85605,68)"/>
    <path d="M5.765625 -0 L5.765625 -38.15625 L11.09375 -38.15625 L11.375 -28.515625 L10.796875 -28.734375 Q11.515625 -33.625,13.921875 -35.890625 Q16.34375 -38.15625,20.375 -38.15625 L24.125 -38.15625 L24.125 -32.40625 L20.453125 -32.40625 Q17.5625 -32.40625,15.65625 -31.359375 Q13.75 -30.3125,12.78125 -28.25 Q11.8125 -26.203125,11.8125 -23.046875 L11.8125 -0 Z " fill="rgba(0,0,0,1.000)" transform="matrix(1,0,0,1,415.39206,68)"/>
    <path d="M16.0625 0.859375 Q10.15625 0.859375,6.65625 -1.875 Q3.171875 -4.609375,3.171875 -9.5 Q3.171875 -14.40625,6.046875 -17.203125 Q8.921875 -20.015625,15.1875 -21.171875 L28.734375 -23.6875 Q28.734375 -28.515625,26.453125 -30.890625 Q24.1875 -33.265625,19.65625 -33.265625 Q15.703125 -33.265625,13.390625 -31.5 Q11.09375 -29.734375,10.21875 -26.421875 L3.8125 -26.921875 Q4.890625 -32.328125,9.03125 -35.671875 Q13.171875 -39.03125,19.65625 -39.03125 Q27 -39.03125,30.890625 -34.890625 Q34.78125 -30.75,34.78125 -23.46875 L34.78125 -7.703125 Q34.78125 -6.40625,35.25 -5.859375 Q35.71875 -5.328125,36.796875 -5.328125 L38.296875 -5.328125 L38.296875 -0 Q38.015625 0.078125,37.359375 0.109375 Q36.71875 0.140625,36 0.140625 Q33.40625 0.140625,31.78125 -0.6875 Q30.171875 -1.515625,29.453125 -3.28125 Q28.734375 -5.046875,28.734375 -7.921875 L29.453125 -7.78125 Q28.9375 -5.328125,27 -3.34375 Q25.0625 -1.375,22.171875 -0.25 Q19.296875 0.859375,16.0625 0.859375 Z M16.625 -4.46875 Q20.453125 -4.46875,23.140625 -5.9375 Q25.84375 -7.421875,27.28125 -9.96875 Q28.734375 -12.53125,28.734375 -15.703125 L28.734375 -18.4375 L16.34375 -16.125 Q12.453125 -15.40625,10.96875 -13.921875 Q9.5 -12.453125,9.5 -10.078125 Q9.5 -7.421875,11.40625 -5.9375 Q13.3125 -4.46875,16.625 -4.46875 Z " fill="rgba(0,0,0,1.000)" transform="matrix(1,0,0,1,439.80005,68)"/>
    <path d="M19.734375 -0 Q14.546875 -0,12.0625 -2.375 Q9.578125 -4.75,9.578125 -9.796875 L9.578125 -47.09375 L15.625 -47.09375 L15.625 -9.9375 Q15.625 -7.34375,16.765625 -6.328125 Q17.921875 -5.328125,20.296875 -5.328125 L25.78125 -5.328125 L25.78125 -0 Z M3.953125 -32.828125 L3.953125 -38.15625 L25.78125 -38.15625 L25.78125 -32.828125 Z " fill="rgba(0,0,0,1.000)" transform="matrix(1,0,0,1,475.87204,68)"/>
    <path d="M5.765625 -0 L5.765625 -38.15625 L11.8125 -38.15625 L11.8125 -0 Z M5.625 -44.140625 L5.625 -51.1875 L11.953125 -51.1875 L11.953125 -44.140625 Z " fill="rgba(0,0,0,1.000)" transform="matrix(1,0,0,1,502.94403,68)"/>
    <path d="M20.65625 0.859375 Q15.40625 0.859375,11.4375 -1.578125 Q7.484375 -4.03125,5.328125 -8.53125 Q3.171875 -13.03125,3.171875 -19.078125 Q3.171875 -25.203125,5.328125 -29.65625 Q7.484375 -34.125,11.4375 -36.578125 Q15.40625 -39.03125,20.65625 -39.03125 Q25.921875 -39.03125,29.84375 -36.578125 Q33.765625 -34.125,35.921875 -29.65625 Q38.09375 -25.203125,38.09375 -19.078125 Q38.09375 -13.03125,35.921875 -8.53125 Q33.765625 -4.03125,29.84375 -1.578125 Q25.921875 0.859375,20.65625 0.859375 Z M20.65625 -4.890625 Q25.921875 -4.890625,28.828125 -8.671875 Q31.75 -12.453125,31.75 -19.078125 Q31.75 -25.703125,28.828125 -29.484375 Q25.921875 -33.265625,20.65625 -33.265625 Q15.40625 -33.265625,12.453125 -29.484375 Q9.5 -25.703125,9.5 -19.078125 Q9.5 -12.453125,12.453125 -8.671875 Q15.40625 -4.890625,20.65625 -4.890625 Z " fill="rgba(0,0,0,1.000)" transform="matrix(1,0,0,1,519.79205,68)"/>
    <path d="M5.765625 -0 L5.765625 -38.15625 L11.296875 -38.15625 L11.515625 -28.4375 L10.796875 -29.09375 Q11.515625 -32.46875,13.3125 -34.65625 Q15.125 -36.859375,17.671875 -37.9375 Q20.234375 -39.03125,23.1875 -39.03125 Q27.578125 -39.03125,30.421875 -37.078125 Q33.265625 -35.140625,34.671875 -31.859375 Q36.078125 -28.578125,36.078125 -24.546875 L36.078125 -0 L30.03125 -0 L30.03125 -22.828125 Q30.03125 -26.359375,29.203125 -28.765625 Q28.375 -31.171875,26.5625 -32.4375 Q24.765625 -33.703125,21.890625 -33.703125 Q17.5 -33.703125,14.65625 -30.921875 Q11.8125 -28.15625,11.8125 -22.828125 L11.8125 -0 Z " fill="rgba(0,0,0,1.000)" transform="matrix(1,0,0,1,560.32806,68)"/>
    <path d="" fill="rgba(0,0,0,1.000)" transform="matrix(1,0,0,1,602.16003,68)"/>
    <path d="M13.390625 -0 L1.578125 -38.15625 L8.203125 -38.15625 L17.140625 -6.34375 L26.203125 -38.15625 L32.6875 -38.15625 L41.765625 -6.34375 L50.765625 -38.15625 L57.390625 -38.15625 L45.578125 -0 L37.9375 -0 L29.453125 -29.015625 L20.953125 -0 Z " fill="rgba(0,0,0,1.000)" transform="matrix(1,0,0,1,620.16003,68)"/>
    <path d="M5.765625 -0 L5.765625 -38.15625 L11.8125 -38.15625 L11.8125 -0 Z M5.625 -44.140625 L5.625 -51.1875 L11.953125 -51.1875 L11.953125 -44.140625 Z " fill="rgba(0,0,0,1.000)" transform="matrix(1,0,0,1,678.408,68)"/>
    <path d="M19.734375 -0 Q14.546875 -0,12.0625 -2.375 Q9.578125 -4.75,9.578125 -9.796875 L9.578125 -47.09375 L15.625 -47.09375 L15.625 -9.9375 Q15.625 -7.34375,16.765625 -6.328125 Q17.921875 -5.328125,20.296875 -5.328125 L25.78125 -5.328125 L25.78125 -0 Z M3.953125 -32.828125 L3.953125 -38.15625 L25.78125 -38.15625 L25.78125 -32.828125 Z " fill="rgba(0,0,0,1.000)" transform="matrix(1,0,0,1,693.096,68)"/>
    <path d="M5.765625 -0 L5.765625 -51.125 L11.8125 -51.125 L11.8125 -29.734375 L11.09375 -29.875 Q11.8125 -33.046875,13.53125 -35.0625 Q15.265625 -37.078125,17.78125 -38.046875 Q20.296875 -39.03125,23.328125 -39.03125 Q27.4375 -39.03125,30.28125 -37.1875 Q33.125 -35.359375,34.59375 -32.078125 Q36.078125 -28.796875,36.078125 -24.546875 L36.078125 -0 L30.03125 -0 L30.03125 -22.828125 Q30.03125 -28.375,28.046875 -31.03125 Q26.0625 -33.703125,22.03125 -33.703125 Q17.421875 -33.703125,14.609375 -30.890625 Q11.8125 -28.078125,11.8125 -22.75 L11.8125 -0 Z " fill="rgba(0,0,0,1.000)" transform="matrix(1,0,0,1,720.168,68)"/>
    <path d="" fill="rgba(0,0,0,1.000)" transform="matrix(1,0,0,1,762,68)"/>
    <path d="M24.84375 1.15625 Q18.9375 1.15625,14.578125 -1.140625 Q10.21875 -3.453125,7.875 -7.734375 Q5.546875 -12.03125,5.546875 -17.859375 L5.546875 -51.1875 L11.734375 -51.1875 L11.734375 -17.859375 Q11.734375 -11.65625,15.15625 -8.265625 Q18.578125 -4.890625,24.84375 -4.890625 Q31.03125 -4.890625,34.453125 -8.265625 Q37.875 -11.65625,37.875 -17.859375 L37.875 -51.1875 L44.0625 -51.1875 L44.0625 -17.859375 Q44.0625 -12.03125,41.71875 -7.734375 Q39.390625 -3.453125,35.0625 -1.140625 Q30.75 1.15625,24.84375 1.15625 Z " fill="rgba(0,0,0,1.000)" transform="matrix(1,0,0,1,780,68)"/>
    <path d="M5.765625 -0 L5.765625 -38.15625 L11.296875 -38.15625 L11.515625 -28.4375 L10.796875 -29.09375 Q11.515625 -32.46875,13.3125 -34.65625 Q15.125 -36.859375,17.671875 -37.9375 Q20.234375 -39.03125,23.1875 -39.03125 Q27.578125 -39.03125,30.421875 -37.078125 Q33.265625 -35.140625,34.671875 -31.859375 Q36.078125 -28.578125,36.078125 -24.546875 L36.078125 -0 L30.03125 -0 L30.03125 -22.828125 Q30.03125 -26.359375,29.203125 -28.765625 Q28.375 -31.171875,26.5625 -32.4375 Q24.765625 -33.703125,21.890625 -33.703125 Q17.5 -33.703125,14.65625 -30.921875 Q11.8125 -28.15625,11.8125 -22.828125 L11.8125 -0 Z " fill="rgba(0,0,0,1.000)" transform="matrix(1,0,0,1,829.608,68)"/>
    <path d="M19.296875 0.859375 Q14.328125 0.859375,10.6875 -1.578125 Q7.0625 -4.03125,5.109375 -8.484375 Q3.171875 -12.953125,3.171875 -19.078125 Q3.171875 -25.203125,5.109375 -29.65625 Q7.0625 -34.125,10.6875 -36.578125 Q14.328125 -39.03125,19.296875 -39.03125 Q23.109375 -39.03125,26.28125 -37.40625 Q29.453125 -35.78125,31.03125 -32.828125 L31.03125 -51.125 L37.078125 -51.125 L37.078125 -0 L31.609375 -0 L31.390625 -5.765625 Q29.8125 -2.65625,26.5625 -0.890625 Q23.328125 0.859375,19.296875 0.859375 Z M20.515625 -4.890625 Q23.90625 -4.890625,26.234375 -6.625 Q28.578125 -8.359375,29.796875 -11.5625 Q31.03125 -14.765625,31.03125 -19.078125 Q31.03125 -23.546875,29.796875 -26.703125 Q28.578125 -29.875,26.234375 -31.5625 Q23.90625 -33.265625,20.515625 -33.265625 Q15.484375 -33.265625,12.484375 -29.484375 Q9.5 -25.703125,9.5 -19.078125 Q9.5 -12.53125,12.484375 -8.703125 Q15.484375 -4.890625,20.515625 -4.890625 Z " fill="rgba(0,0,0,1.000)" transform="matrix(1,0,0,1,870.576,68)"/>
    <path d="M20.65625 0.859375 Q15.265625 0.859375,11.34375 -1.578125 Q7.421875 -4.03125,5.296875 -8.53125 Q3.171875 -13.03125,3.171875 -19.078125 Q3.171875 -25.125,5.296875 -29.59375 Q7.421875 -34.0625,11.265625 -36.546875 Q15.125 -39.03125,20.375 -39.03125 Q25.34375 -39.03125,29.15625 -36.6875 Q32.96875 -34.34375,35.09375 -29.875 Q37.21875 -25.421875,37.21875 -19.015625 L37.21875 -17.203125 L9.5 -17.203125 Q9.859375 -11.09375,12.78125 -7.984375 Q15.703125 -4.890625,20.65625 -4.890625 Q24.40625 -4.890625,26.8125 -6.65625 Q29.234375 -8.421875,30.171875 -11.296875 L36.640625 -10.796875 Q35.140625 -5.6875,30.921875 -2.40625 Q26.71875 0.859375,20.65625 0.859375 Z M9.5 -22.53125 L30.59375 -22.53125 Q30.171875 -28.078125,27.390625 -30.671875 Q24.625 -33.265625,20.375 -33.265625 Q15.984375 -33.265625,13.140625 -30.5625 Q10.296875 -27.859375,9.5 -22.53125 Z " fill="rgba(0,0,0,1.000)" transform="matrix(1,0,0,1,912.696,68)"/>
    <path d="M5.765625 -0 L5.765625 -38.15625 L11.09375 -38.15625 L11.375 -28.515625 L10.796875 -28.734375 Q11.515625 -33.625,13.921875 -35.890625 Q16.34375 -38.15625,20.375 -38.15625 L24.125 -38.15625 L24.125 -32.40625 L20.453125 -32.40625 Q17.5625 -32.40625,15.65625 -31.359375 Q13.75 -30.3125,12.78125 -28.25 Q11.8125 -26.203125,11.8125 -23.046875 L11.8125 -0 Z " fill="rgba(0,0,0,1.000)" transform="matrix(1,0,0,1,952.368,68)"/>
    <path d="M13.25 -0 Q9.9375 -0,7.84375 -1.71875 Q5.765625 -3.453125,5.765625 -7.203125 L5.765625 -51.125 L11.8125 -51.125 L11.8125 -7.703125 Q11.8125 -6.546875,12.421875 -5.9375 Q13.03125 -5.328125,14.1875 -5.328125 L17.5 -5.328125 L17.5 -0 Z " fill="rgba(0,0,0,1.000)" transform="matrix(1,0,0,1,977.496,68)"/>
    <path d="M5.765625 -0 L5.765625 -38.15625 L11.8125 -38.15625 L11.8125 -0 Z M5.625 -44.140625 L5.625 -51.1875 L11.953125 -51.1875 L11.953125 -44.140625 Z " fill="rgba(0,0,0,1.000)" transform="matrix(1,0,0,1,996.144,68)"/>
    <path d="M5.765625 -0 L5.765625 -38.15625 L11.296875 -38.15625 L11.515625 -28.4375 L10.796875 -29.09375 Q11.515625 -32.46875,13.3125 -34.65625 Q15.125 -36.859375,17.671875 -37.9375 Q20.234375 -39.03125,23.1875 -39.03125 Q27.578125 -39.03125,30.421875 -37.078125 Q33.265625 -35.140625,34.671875 -31.859375 Q36.078125 -28.578125,36.078125 -24.546875 L36.078125 -0 L30.03125 -0 L30.03125 -22.828125 Q30.03125 -26.359375,29.203125 -28.765625 Q28.375 -31.171875,26.5625 -32.4375 Q24.765625 -33.703125,21.890625 -33.703125 Q17.5 -33.703125,14.65625 -30.921875 Q11.8125 -28.15625,11.8125 -22.828125 L11.8125 -0 Z " fill="rgba(0,0,0,1.000)" transform="matrix(1,0,0,1,1014.144,68)"/>
    <path d="M20.65625 0.859375 Q15.265625 0.859375,11.34375 -1.578125 Q7.421875 -4.03125,5.296875 -8.53125 Q3.171875 -13.03125,3.171875 -19.078125 Q3.171875 -25.125,5.296875 -29.59375 Q7.421875 -34.0625,11.265625 -36.546875 Q15.125 -39.03125,20.375 -39.03125 Q25.34375 -39.03125,29.15625 -36.6875 Q32.96875 -34.34375,35.09375 -29.875 Q37.21875 -25.421875,37.21875 -19.015625 L37.21875 -17.203125 L9.5 -17.203125 Q9.859375 -11.09375,12.78125 -7.984375 Q15.703125 -4.890625,20.65625 -4.890625 Q24.40625 -4.890625,26.8125 -6.65625 Q29.234375 -8.421875,30.171875 -11.296875 L36.640625 -10.796875 Q35.140625 -5.6875,30.921875 -2.40625 Q26.71875 0.859375,20.65625 0.859375 Z M9.5 -22.53125 L30.59375 -22.53125 Q30.171875 -28.078125,27.390625 -30.671875 Q24.625 -33.265625,20.375 -33.265625 Q15.984375 -33.265625,13.140625 -30.5625 Q10.296875 -27.859375,9.5 -22.53125 Z " fill="rgba(0,0,0,1.000)" transform="matrix(1,0,0,1,1055.1119,68)"/>
    <path d="M3.390625 11.234375 L6.84375 -0 L3.171875 -0 L3.171875 -8.140625 L11.296875 -8.140625 L11.296875 -1.015625 L6.984375 11.234375 Z " fill="rgba(0,0,0,1.000)" transform="matrix(1,0,0,1,1095.5039,68)"/>
    <path d="" fill="rgba(0,0,0,1.000)" transform="matrix(1,0,0,1,1109.976,68)"/>
    <path d="M6.625 -0 L6.625 -51.125 L12.8125 -51.125 L12.8125 -2.875 L9.71875 -6.046875 L38.375 -6.046875 L38.375 -0 Z " fill="rgba(0,0,0,1.000)" transform="matrix(1,0,0,1,161.37604,154)"/>
    <path d="M5.765625 -0 L5.765625 -38.15625 L11.8125 -38.15625 L11.8125 -0 Z M5.625 -44.140625 L5.625 -51.1875 L11.953125 -51.1875 L11.953125 -44.140625 Z " fill="rgba(0,0,0,1.000)" transform="matrix(1,0,0,1,199.53604,154)"/>
    <path d="M5.765625 -0 L5.765625 -38.15625 L11.296875 -38.15625 L11.515625 -28.4375 L10.796875 -29.09375 Q11.515625 -32.46875,13.3125 -34.65625 Q15.125 -36.859375,17.671875 -37.9375 Q20.234375 -39.03125,23.1875 -39.03125 Q27.578125 -39.03125,30.421875 -37.078125 Q33.265625 -35.140625,34.671875 -31.859375 Q36.078125 -28.578125,36.078125 -24.546875 L36.078125 -0 L30.03125 -0 L30.03125 -22.828125 Q30.03125 -26.359375,29.203125 -28.765625 Q28.375 -31.171875,26.5625 -32.4375 Q24.765625 -33.703125,21.890625 -33.703125 Q17.5 -33.703125,14.65625 -30.921875 Q11.8125 -28.15625,11.8125 -22.828125 L11.8125 -0 Z " fill="rgba(0,0,0,1.000)" transform="matrix(1,0,0,1,217.53604,154)"/>
    <path d="M20.65625 0.859375 Q15.265625 0.859375,11.34375 -1.578125 Q7.421875 -4.03125,5.296875 -8.53125 Q3.171875 -13.03125,3.171875 -19.078125 Q3.171875 -25.125,5.296875 -29.59375 Q7.421875 -34.0625,11.265625 -36.546875 Q15.125 -39.03125,20.375 -39.03125 Q25.34375 -39.03125,29.15625 -36.6875 Q32.96875 -34.34375,35.09375 -29.875 Q37.21875 -25.421875,37.21875 -19.015625 L37.21875 -17.203125 L9.5 -17.203125 Q9.859375 -11.09375,12.78125 -7.984375 Q15.703125 -4.890625,20.65625 -4.890625 Q24.40625 -4.890625,26.8125 -6.65625 Q29.234375 -8.421875,30.171875 -11.296875 L36.640625 -10.796875 Q35.140625 -5.6875,30.921875 -2.40625 Q26.71875 0.859375,20.65625 0.859375 Z M9.5 -22.53125 L30.59375 -22.53125 Q30.171875 -28.078125,27.390625 -30.671875 Q24.625 -33.265625,20.375 -33.265625 Q15.984375 -33.265625,13.140625 -30.5625 Q10.296875 -27.859375,9.5 -22.53125 Z " fill="rgba(0,0,0,1.000)" transform="matrix(1,0,0,1,258.50403,154)"/>
    <path d="M3.171875 -18.140625 L3.171875 -23.828125 L27 -23.828125 L27 -18.140625 Z " fill="rgba(0,0,0,1.000)" transform="matrix(1,0,0,1,298.89603,154)"/>
    <path d="M16.78125 -0 L16.78125 -45.078125 L0.859375 -45.078125 L0.859375 -51.125 L38.875 -51.125 L38.875 -45.078125 L22.96875 -45.078125 L22.96875 -0 Z " fill="rgba(0,0,0,1.000)" transform="matrix(1,0,0,1,326.18402,154)"/>
    <path d="M5.765625 -0 L5.765625 -51.125 L11.8125 -51.125 L11.8125 -29.734375 L11.09375 -29.875 Q11.8125 -33.046875,13.53125 -35.0625 Q15.265625 -37.078125,17.78125 -38.046875 Q20.296875 -39.03125,23.328125 -39.03125 Q27.4375 -39.03125,30.28125 -37.1875 Q33.125 -35.359375,34.59375 -32.078125 Q36.078125 -28.796875,36.078125 -24.546875 L36.078125 -0 L30.03125 -0 L30.03125 -22.828125 Q30.03125 -28.375,28.046875 -31.03125 Q26.0625 -33.703125,22.03125 -33.703125 Q17.421875 -33.703125,14.609375 -30.890625 Q11.8125 -28.078125,11.8125 -22.75 L11.8125 -0 Z " fill="rgba(0,0,0,1.000)" transform="matrix(1,0,0,1,363.768,154)"/>
    <path d="M5.765625 -0 L5.765625 -38.15625 L11.09375 -38.15625 L11.375 -28.515625 L10.796875 -28.734375 Q11.515625 -33.625,13.921875 -35.890625 Q16.34375 -38.15625,20.375 -38.15625 L24.125 -38.15625 L24.125 -32.40625 L20.453125 -32.40625 Q17.5625 -32.40625,15.65625 -31.359375 Q13.75 -30.3125,12.78125 -28.25 Q11.8125 -26.203125,11.8125 -23.046875 L11.8125 -0 Z " fill="rgba(0,0,0,1.000)" transform="matrix(1,0,0,1,404.16,154)"/>
    <path d="M20.65625 0.859375 Q15.40625 0.859375,11.4375 -1.578125 Q7.484375 -4.03125,5.328125 -8.53125 Q3.171875 -13.03125,3.171875 -19.078125 Q3.171875 -25.203125,5.328125 -29.65625 Q7.484375 -34.125,11.4375 -36.578125 Q15.40625 -39.03125,20.65625 -39.03125 Q25.921875 -39.03125,29.84375 -36.578125 Q33.765625 -34.125,35.921875 -29.65625 Q38.09375 -25.203125,38.09375 -19.078125 Q38.09375 -13.03125,35.921875 -8.53125 Q33.765625 -4.03125,29.84375 -1.578125 Q25.921875 0.859375,20.65625 0.859375 Z M20.65625 -4.890625 Q25.921875 -4.890625,28.828125 -8.671875 Q31.75 -12.453125,31.75 -19.078125 Q31.75 -25.703125,28.828125 -29.484375 Q25.921875 -33.265625,20.65625 -33.265625 Q15.40625 -33.265625,12.453125 -29.484375 Q9.5 -25.703125,9.5 -19.078125 Q9.5 -12.453125,12.453125 -8.671875 Q15.40625 -4.890625,20.65625 -4.890625 Z " fill="rgba(0,0,0,1.000)" transform="matrix(1,0,0,1,428.568,154)"/>
    <path d="M18.28125 0.859375 Q12.59375 0.859375,9.171875 -2.984375 Q5.765625 -6.84375,5.765625 -13.609375 L5.765625 -38.15625 L11.8125 -38.15625 L11.8125 -15.265625 Q11.8125 -9.71875,13.78125 -7.09375 Q15.765625 -4.46875,19.875 -4.46875 Q24.40625 -4.46875,27 -7.375 Q29.59375 -10.296875,29.59375 -15.40625 L29.59375 -38.15625 L35.640625 -38.15625 L35.640625 -0 L29.875 -0 L29.875 -9.4375 L30.8125 -8.921875 Q29.65625 -4.25,26.421875 -1.6875 Q23.1875 0.859375,18.28125 0.859375 Z " fill="rgba(0,0,0,1.000)" transform="matrix(1,0,0,1,469.104,154)"/>
    <path d="M20.234375 11.65625 Q16.125 11.65625,12.8125 10.28125 Q9.5 8.921875,7.265625 6.40625 Q5.046875 3.890625,4.25 0.578125 L10.578125 0.140625 Q11.453125 2.8125,13.640625 4.359375 Q15.84375 5.90625,20.234375 5.90625 Q25.421875 5.90625,28.1875 3.8125 Q30.953125 1.734375,30.953125 -2.453125 L30.953125 -8.640625 Q29.59375 -5.609375,26.5625 -3.8125 Q23.546875 -2.015625,19.796875 -2.015625 Q14.96875 -2.015625,11.1875 -4.390625 Q7.421875 -6.765625,5.296875 -10.9375 Q3.171875 -15.125,3.171875 -20.515625 Q3.171875 -25.984375,5.25 -30.125 Q7.34375 -34.265625,11.046875 -36.640625 Q14.765625 -39.03125,19.515625 -39.03125 Q23.546875 -39.03125,26.75 -37.15625 Q29.953125 -35.28125,31.25 -32.109375 L31.25 -38.15625 L37.015625 -38.15625 L37.015625 -2.59375 Q37.015625 1.875,34.984375 5.078125 Q32.96875 8.28125,29.21875 9.96875 Q25.484375 11.65625,20.234375 11.65625 Z M20.09375 -7.78125 Q24.984375 -7.78125,27.9375 -11.1875 Q30.890625 -14.609375,30.953125 -20.515625 Q31.03125 -24.484375,29.703125 -27.328125 Q28.375 -30.171875,25.890625 -31.71875 Q23.40625 -33.265625,20.09375 -33.265625 Q15.046875 -33.265625,12.265625 -29.84375 Q9.5 -26.421875,9.5 -20.515625 Q9.5 -14.609375,12.34375 -11.1875 Q15.1875 -7.78125,20.09375 -7.78125 Z " fill="rgba(0,0,0,1.000)" transform="matrix(1,0,0,1,509.784,154)"/>
    <path d="M5.765625 -0 L5.765625 -51.125 L11.8125 -51.125 L11.8125 -29.734375 L11.09375 -29.875 Q11.8125 -33.046875,13.53125 -35.0625 Q15.265625 -37.078125,17.78125 -38.046875 Q20.296875 -39.03125,23.328125 -39.03125 Q27.4375 -39.03125,30.28125 -37.1875 Q33.125 -35.359375,34.59375 -32.078125 Q36.078125 -28.796875,36.078125 -24.546875 L36.078125 -0 L30.03125 -0 L30.03125 -22.828125 Q30.03125 -28.375,28.046875 -31.03125 Q26.0625 -33.703125,22.03125 -33.703125 Q17.421875 -33.703125,14.609375 -30.890625 Q11.8125 -28.078125,11.8125 -22.75 L11.8125 -0 Z " fill="rgba(0,0,0,1.000)" transform="matrix(1,0,0,1,551.472,154)"/>
    <path d="M3.390625 11.234375 L6.84375 -0 L3.171875 -0 L3.171875 -8.140625 L11.296875 -8.140625 L11.296875 -1.015625 L6.984375 11.234375 Z " fill="rgba(0,0,0,1.000)" transform="matrix(1,0,0,1,593.30396,154)"/>
    <path d="" fill="rgba(0,0,0,1.000)" transform="matrix(1,0,0,1,607.77594,154)"/>
    <path d="M16.0625 0.859375 Q10.15625 0.859375,6.65625 -1.875 Q3.171875 -4.609375,3.171875 -9.5 Q3.171875 -14.40625,6.046875 -17.203125 Q8.921875 -20.015625,15.1875 -21.171875 L28.734375 -23.6875 Q28.734375 -28.515625,26.453125 -30.890625 Q24.1875 -33.265625,19.65625 -33.265625 Q15.703125 -33.265625,13.390625 -31.5 Q11.09375 -29.734375,10.21875 -26.421875 L3.8125 -26.921875 Q4.890625 -32.328125,9.03125 -35.671875 Q13.171875 -39.03125,19.65625 -39.03125 Q27 -39.03125,30.890625 -34.890625 Q34.78125 -30.75,34.78125 -23.46875 L34.78125 -7.703125 Q34.78125 -6.40625,35.25 -5.859375 Q35.71875 -5.328125,36.796875 -5.328125 L38.296875 -5.328125 L38.296875 -0 Q38.015625 0.078125,37.359375 0.109375 Q36.71875 0.140625,36 0.140625 Q33.40625 0.140625,31.78125 -0.6875 Q30.171875 -1.515625,29.453125 -3.28125 Q28.734375 -5.046875,28.734375 -7.921875 L29.453125 -7.78125 Q28.9375 -5.328125,27 -3.34375 Q25.0625 -1.375,22.171875 -0.25 Q19.296875 0.859375,16.0625 0.859375 Z M16.625 -4.46875 Q20.453125 -4.46875,23.140625 -5.9375 Q25.84375 -7.421875,27.28125 -9.96875 Q28.734375 -12.53125,28.734375 -15.703125 L28.734375 -18.4375 L16.34375 -16.125 Q12.453125 -15.40625,10.96875 -13.921875 Q9.5 -12.453125,9.5 -10.078125 Q9.5 -7.421875,11.40625 -5.9375 Q13.3125 -4.46875,16.625 -4.46875 Z " fill="rgba(0,0,0,1.000)" transform="matrix(1,0,0,1,625.77594,154)"/>
    <path d="M5.765625 -0 L5.765625 -38.15625 L11.296875 -38.15625 L11.515625 -28.4375 L10.796875 -29.09375 Q11.515625 -32.46875,13.3125 -34.65625 Q15.125 -36.859375,17.671875 -37.9375 Q20.234375 -39.03125,23.1875 -39.03125 Q27.578125 -39.03125,30.421875 -37.078125 Q33.265625 -35.140625,34.671875 -31.859375 Q36.078125 -28.578125,36.078125 -24.546875 L36.078125 -0 L30.03125 -0 L30.03125 -22.828125 Q30.03125 -26.359375,29.203125 -28.765625 Q28.375 -31.171875,26.5625 -32.4375 Q24.765625 -33.703125,21.890625 -33.703125 Q17.5 -33.703125,14.65625 -30.921875 Q11.8125 -28.15625,11.8125 -22.828125 L11.8125 -0 Z " fill="rgba(0,0,0,1.000)" transform="matrix(1,0,0,1,665.1599,154)"/>
    <path d="M19.296875 0.859375 Q14.328125 0.859375,10.6875 -1.578125 Q7.0625 -4.03125,5.109375 -8.484375 Q3.171875 -12.953125,3.171875 -19.078125 Q3.171875 -25.203125,5.109375 -29.65625 Q7.0625 -34.125,10.6875 -36.578125 Q14.328125 -39.03125,19.296875 -39.03125 Q23.109375 -39.03125,26.28125 -37.40625 Q29.453125 -35.78125,31.03125 -32.828125 L31.03125 -51.125 L37.078125 -51.125 L37.078125 -0 L31.609375 -0 L31.390625 -5.765625 Q29.8125 -2.65625,26.5625 -0.890625 Q23.328125 0.859375,19.296875 0.859375 Z M20.515625 -4.890625 Q23.90625 -4.890625,26.234375 -6.625 Q28.578125 -8.359375,29.796875 -11.5625 Q31.03125 -14.765625,31.03125 -19.078125 Q31.03125 -23.546875,29.796875 -26.703125 Q28.578125 -29.875,26.234375 -31.5625 Q23.90625 -33.265625,20.515625 -33.265625 Q15.484375 -33.265625,12.484375 -29.484375 Q9.5 -25.703125,9.5 -19.078125 Q9.5 -12.53125,12.484375 -8.703125 Q15.484375 -4.890625,20.515625 -4.890625 Z " fill="rgba(0,0,0,1.000)" transform="matrix(1,0,0,1,706.1279,154)"/>
    <path d="" fill="rgba(0,0,0,1.000)" transform="matrix(1,0,0,1,748.9679,154)"/>
    <path d="M26.5625 1.15625 Q19.296875 1.15625,14.078125 -2.046875 Q8.859375 -5.25,6.046875 -11.21875 Q3.234375 -17.203125,3.234375 -25.484375 Q3.234375 -33.765625,6.046875 -39.78125 Q8.859375 -45.796875,14.078125 -49.03125 Q19.296875 -52.265625,26.5625 -52.265625 Q33.90625 -52.265625,39.125 -49.03125 Q44.359375 -45.796875,47.15625 -39.78125 Q49.96875 -33.765625,49.96875 -25.484375 Q49.96875 -17.203125,47.15625 -11.21875 Q44.359375 -5.25,39.125 -2.046875 Q33.90625 1.15625,26.5625 1.15625 Z M26.5625 -4.890625 Q31.890625 -4.890625,35.671875 -7.34375 Q39.453125 -9.796875,41.46875 -14.40625 Q43.484375 -19.015625,43.484375 -25.484375 Q43.484375 -31.96875,41.46875 -36.609375 Q39.453125 -41.25,35.671875 -43.734375 Q31.890625 -46.21875,26.5625 -46.21875 Q21.3125 -46.21875,17.53125 -43.734375 Q13.75 -41.25,11.734375 -36.609375 Q9.71875 -31.96875,9.71875 -25.484375 Q9.71875 -19.015625,11.734375 -14.40625 Q13.75 -9.796875,17.53125 -7.34375 Q21.3125 -4.890625,26.5625 -4.890625 Z " fill="rgba(0,0,0,1.000)" transform="matrix(1,0,0,1,766.9679,154)"/>
    <path d="M15.484375 -0 L1.578125 -38.15625 L8.203125 -38.15625 L19.296875 -6.1875 L30.390625 -38.15625 L37.015625 -38.15625 L23.109375 -0 Z " fill="rgba(0,0,0,1.000)" transform="matrix(1,0,0,1,819.0959,154)"/>
    <path d="M20.65625 0.859375 Q15.265625 0.859375,11.34375 -1.578125 Q7.421875 -4.03125,5.296875 -8.53125 Q3.171875 -13.03125,3.171875 -19.078125 Q3.171875 -25.125,5.296875 -29.59375 Q7.421875 -34.0625,11.265625 -36.546875 Q15.125 -39.03125,20.375 -39.03125 Q25.34375 -39.03125,29.15625 -36.6875 Q32.96875 -34.34375,35.09375 -29.875 Q37.21875 -25.421875,37.21875 -19.015625 L37.21875 -17.203125 L9.5 -17.203125 Q9.859375 -11.09375,12.78125 -7.984375 Q15.703125 -4.890625,20.65625 -4.890625 Q24.40625 -4.890625,26.8125 -6.65625 Q29.234375 -8.421875,30.171875 -11.296875 L36.640625 -10.796875 Q35.140625 -5.6875,30.921875 -2.40625 Q26.71875 0.859375,20.65625 0.859375 Z M9.5 -22.53125 L30.59375 -22.53125 Q30.171875 -28.078125,27.390625 -30.671875 Q24.625 -33.265625,20.375 -33.265625 Q15.984375 -33.265625,13.140625 -30.5625 Q10.296875 -27.859375,9.5 -22.53125 Z " fill="rgba(0,0,0,1.000)" transform="matrix(1,0,0,1,855.81586,154)"/>
    <path d="M5.765625 -0 L5.765625 -38.15625 L11.09375 -38.15625 L11.375 -28.515625 L10.796875 -28.734375 Q11.515625 -33.625,13.921875 -35.890625 Q16.34375 -38.15625,20.375 -38.15625 L24.125 -38.15625 L24.125 -32.40625 L20.453125 -32.40625 Q17.5625 -32.40625,15.65625 -31.359375 Q13.75 -30.3125,12.78125 -28.25 Q11.8125 -26.203125,11.8125 -23.046875 L11.8125 -0 Z " fill="rgba(0,0,0,1.000)" transform="matrix(1,0,0,1,895.48785,154)"/>
    <path d="M13.25 -0 Q9.9375 -0,7.84375 -1.71875 Q5.765625 -3.453125,5.765625 -7.203125 L5.765625 -51.125 L11.8125 -51.125 L11.8125 -7.703125 Q11.8125 -6.546875,12.421875 -5.9375 Q13.03125 -5.328125,14.1875 -5.328125 L17.5 -5.328125 L17.5 -0 Z " fill="rgba(0,0,0,1.000)" transform="matrix(1,0,0,1,920.61584,154)"/>
    <path d="M5.765625 -0 L5.765625 -38.15625 L11.8125 -38.15625 L11.8125 -0 Z M5.625 -44.140625 L5.625 -51.1875 L11.953125 -51.1875 L11.953125 -44.140625 Z " fill="rgba(0,0,0,1.000)" transform="matrix(1,0,0,1,939.26385,154)"/>
    <path d="M5.765625 -0 L5.765625 -38.15625 L11.296875 -38.15625 L11.515625 -28.4375 L10.796875 -29.09375 Q11.515625 -32.46875,13.3125 -34.65625 Q15.125 -36.859375,17.671875 -37.9375 Q20.234375 -39.03125,23.1875 -39.03125 Q27.578125 -39.03125,30.421875 -37.078125 Q33.265625 -35.140625,34.671875 -31.859375 Q36.078125 -28.578125,36.078125 -24.546875 L36.078125 -0 L30.03125 -0 L30.03125 -22.828125 Q30.03125 -26.359375,29.203125 -28.765625 Q28.375 -31.171875,26.5625 -32.4375 Q24.765625 -33.703125,21.890625 -33.703125 Q17.5 -33.703125,14.65625 -30.921875 Q11.8125 -28.15625,11.8125 -22.828125 L11.8125 -0 Z " fill="rgba(0,0,0,1.000)" transform="matrix(1,0,0,1,957.26385,154)"/>
    <path d="M20.65625 0.859375 Q15.265625 0.859375,11.34375 -1.578125 Q7.421875 -4.03125,5.296875 -8.53125 Q3.171875 -13.03125,3.171875 -19.078125 Q3.171875 -25.125,5.296875 -29.59375 Q7.421875 -34.0625,11.265625 -36.546875 Q15.125 -39.03125,20.375 -39.03125 Q25.34375 -39.03125,29.15625 -36.6875 Q32.96875 -34.34375,35.09375 -29.875 Q37.21875 -25.421875,37.21875 -19.015625 L37.21875 -17.203125 L9.5 -17.203125 Q9.859375 -11.09375,12.78125 -7.984375 Q15.703125 -4.890625,20.65625 -4.890625 Q24.40625 -4.890625,26.8125 -6.65625 Q29.234375 -8.421875,30.171875 -11.296875 L36.640625 -10.796875 Q35.140625 -5.6875,30.921875 -2.40625 Q26.71875 0.859375,20.65625 0.859375 Z M9.5 -22.53125 L30.59375 -22.53125 Q30.171875 -28.078125,27.390625 -30.671875 Q24.625 -33.265625,20.375 -33.265625 Q15.984375 -33.265625,13.140625 -30.5625 Q10.296875 -27.859375,9.5 -22.53125 Z " fill="rgba(0,0,0,1.000)" transform="matrix(1,0,0,1,998.2319,154)"/>

</svg>
