<?xml version="1.0" encoding="UTF-8"?>
<svg xmlns="http://www.w3.org/2000/svg" viewBox="0 0 1200 630" width="1200" height="630">
    <rect x="0" y="0" width="1200" height="630" fill="rgba(255,255,255,1.000)"/>
    <g transform="matrix(1,0,0,1,39,218)">
        <image href="assets/images/yeecord.png" x="0" y="0" width="150" height="150"/>
    </g>
    <path d="M6.546875 0.28125 Q4.796875 0.28125,3.609375 -0.265625 Q2.421875 -0.8125,1.78125 -1.78125 Q1.15625 -2.765625,1.0625 -4.015625 L3.171875 -4.15625 Q3.359375 -3,4.109375 -2.3125 Q4.875 -1.625,6.546875 -1.625 Q7.84375 -1.625,8.546875 -2.046875 Q9.265625 -2.46875,9.265625 -3.40625 Q9.265625 -3.90625,9.03125 -4.234375 Q8.8125 -4.578125,8.140625 -4.828125 Q7.46875 -5.09375,6.171875 -5.328125 Q4.390625 -5.65625,3.375 -6.15625 Q2.375 -6.671875,1.96875 -7.390625 Q1.5625 -8.109375,1.5625 -9.125 Q1.5625 -10.828125,2.8125 -11.921875 Q4.078125 -13.015625,6.390625 -13.015625 Q8.0625 -13.015625,9.125 -12.421875 Q10.203125 -11.828125,10.75 -10.890625 Q11.296875 -9.953125,11.421875 -8.921875 L9.3125 -8.78125 Q9.265625 -9.390625,8.953125 -9.90625 Q8.640625 -10.4375,8.015625 -10.765625 Q7.390625 -11.09375,6.34375 -11.09375 Q4.96875 -11.09375,4.3125 -10.5625 Q3.671875 -10.03125,3.671875 -9.21875 Q3.671875 -8.59375,3.921875 -8.1875 Q4.171875 -7.796875,4.8125 -7.546875 Q5.453125 -7.296875,6.546875 -7.109375 Q8.421875 -6.796875,9.46875 -6.3125 Q10.53125 -5.828125,10.953125 -5.125 Q11.375 -4.421875,11.375 -3.40625 Q11.375 -1.65625,10.015625 -0.6875 Q8.65625 0.28125,6.546875 0.28125 Z " fill="rgba(0,0,0,1.000)" transform="matrix(1,0,0,1,60,406)"/>
    <path d="M6.890625 0.28125 Q5.09375 0.28125,3.78125 -0.53125 Q2.46875 -1.34375,1.765625 -2.84375 Q1.0625 -4.34375,1.0625 -6.359375 Q1.0625 -8.375,1.765625 -9.859375 Q2.46875 -11.359375,3.75 -12.1875 Q5.046875 -13.015625,6.796875 -13.015625 Q8.453125 -13.015625,9.71875 -12.234375 Q10.984375 -11.453125,11.6875 -9.953125 Q12.40625 -8.46875,12.40625 -6.34375 L12.40625 -5.734375 L3.171875 -5.734375 Q3.28125 -3.703125,4.25 -2.65625 Q5.234375 -1.625,6.890625 -1.625 Q8.140625 -1.625,8.9375 -2.21875 Q9.75 -2.8125,10.0625 -3.765625 L12.21875 -3.59375 Q11.71875 -1.890625,10.3125 -0.796875 Q8.90625 0.28125,6.890625 0.28125 Z M3.171875 -7.515625 L10.203125 -7.515625 Q10.0625 -9.359375,9.125 -10.21875 Q8.203125 -11.09375,6.796875 -11.09375 Q5.328125 -11.09375,4.375 -10.1875 Q3.4375 -9.28125,3.171875 -7.515625 Z " fill="rgba(0,0,0,1.000)" transform="matrix(1,0,0,1,72.24,406)"/>
    <path d="M1.921875 3.59375 L1.921875 -12.71875 L3.796875 -12.71875 L3.84375 -9.984375 L3.546875 -10.125 Q4.03125 -11.546875,5.140625 -12.28125 Q6.265625 -13.015625,7.734375 -13.015625 Q9.625 -13.015625,10.828125 -12.078125 Q12.046875 -11.140625,12.625 -9.625 Q13.21875 -8.109375,13.21875 -6.359375 Q13.21875 -4.609375,12.625 -3.09375 Q12.046875 -1.578125,10.828125 -0.640625 Q9.625 0.28125,7.734375 0.28125 Q6.75 0.28125,5.890625 -0.046875 Q5.046875 -0.390625,4.453125 -0.984375 Q3.859375 -1.578125,3.640625 -2.40625 L3.9375 -2.734375 L3.9375 3.59375 Z M7.53125 -1.625 Q9.1875 -1.625,10.140625 -2.875 Q11.109375 -4.125,11.109375 -6.359375 Q11.109375 -8.59375,10.140625 -9.84375 Q9.1875 -11.09375,7.53125 -11.09375 Q6.4375 -11.09375,5.625 -10.5625 Q4.828125 -10.03125,4.375 -8.96875 Q3.9375 -7.921875,3.9375 -6.359375 Q3.9375 -4.796875,4.359375 -3.734375 Q4.796875 -2.6875,5.609375 -2.15625 Q6.4375 -1.625,7.53125 -1.625 Z " fill="rgba(0,0,0,1.000)" transform="matrix(1,0,0,1,85.464005,406)"/>
    <path d="M1.921875 -0 L1.921875 -12.71875 L3.9375 -12.71875 L3.9375 -0 Z M1.875 -14.71875 L1.875 -17.0625 L3.984375 -17.0625 L3.984375 -14.71875 Z " fill="rgba(0,0,0,1.000)" transform="matrix(1,0,0,1,99.504,406)"/>
    <path d="M5.359375 0.28125 Q3.390625 0.28125,2.21875 -0.625 Q1.0625 -1.53125,1.0625 -3.171875 Q1.0625 -4.796875,2.015625 -5.734375 Q2.96875 -6.671875,5.0625 -7.0625 L9.578125 -7.890625 Q9.578125 -9.5,8.8125 -10.296875 Q8.0625 -11.09375,6.546875 -11.09375 Q5.234375 -11.09375,4.46875 -10.5 Q3.703125 -9.90625,3.40625 -8.8125 L1.265625 -8.96875 Q1.625 -10.78125,3 -11.890625 Q4.390625 -13.015625,6.546875 -13.015625 Q9 -13.015625,10.296875 -11.625 Q11.59375 -10.25,11.59375 -7.828125 L11.59375 -2.5625 Q11.59375 -2.140625,11.75 -1.953125 Q11.90625 -1.78125,12.265625 -1.78125 L12.765625 -1.78125 L12.765625 -0 Q12.671875 0.03125,12.453125 0.03125 Q12.234375 0.046875,12 0.046875 Q11.140625 0.046875,10.59375 -0.21875 Q10.0625 -0.5,9.8125 -1.09375 Q9.578125 -1.6875,9.578125 -2.640625 L9.8125 -2.59375 Q9.640625 -1.78125,9 -1.109375 Q8.359375 -0.453125,7.390625 -0.078125 Q6.4375 0.28125,5.359375 0.28125 Z M5.546875 -1.484375 Q6.8125 -1.484375,7.703125 -1.96875 Q8.609375 -2.46875,9.09375 -3.3125 Q9.578125 -4.171875,9.578125 -5.234375 L9.578125 -6.140625 L5.453125 -5.375 Q4.15625 -5.140625,3.65625 -4.640625 Q3.171875 -4.15625,3.171875 -3.359375 Q3.171875 -2.46875,3.796875 -1.96875 Q4.4375 -1.484375,5.546875 -1.484375 Z " fill="rgba(0,0,0,1.000)" transform="matrix(1,0,0,1,105.12,406)"/>
    <path d="M4.421875 2.640625 Q1.078125 -2.375,1.078125 -7.6875 Q1.078125 -13.015625,4.421875 -18 L6.21875 -18 Q3.171875 -12.8125,3.171875 -7.6875 Q3.171875 -5.109375,3.9375 -2.53125 Q4.703125 0.046875,6.21875 2.640625 Z " fill="rgba(0,0,0,1.000)" transform="matrix(1,0,0,1,118.344,406)"/>
    <path d="M7.9375 0.390625 Q5.875 0.390625,4.359375 -0.6875 Q2.859375 -1.78125,2.03125 -3.765625 Q1.203125 -5.765625,1.203125 -8.5 Q1.203125 -11.234375,2.03125 -13.234375 Q2.859375 -15.234375,4.359375 -16.328125 Q5.875 -17.421875,7.9375 -17.421875 Q10.03125 -17.421875,11.546875 -16.328125 Q13.0625 -15.234375,13.890625 -13.234375 Q14.71875 -11.25,14.71875 -8.5 Q14.71875 -5.765625,13.890625 -3.765625 Q13.0625 -1.78125,11.546875 -0.6875 Q10.03125 0.390625,7.9375 0.390625 Z M7.9375 -1.625 Q10.15625 -1.625,11.34375 -3.40625 Q12.546875 -5.203125,12.546875 -8.5 Q12.546875 -10.703125,12 -12.25 Q11.46875 -13.796875,10.453125 -14.59375 Q9.4375 -15.40625,7.9375 -15.40625 Q6.484375 -15.40625,5.453125 -14.59375 Q4.4375 -13.796875,3.890625 -12.25 Q3.359375 -10.703125,3.359375 -8.5 Q3.359375 -5.203125,4.5625 -3.40625 Q5.765625 -1.625,7.9375 -1.625 Z " fill="rgba(0,0,0,1.000)" transform="matrix(1,0,0,1,124.92,406)"/>
    <path d="M4.75 -8.78125 Q3.140625 -8.78125,2.09375 -9.875 Q1.0625 -10.96875,1.0625 -13.015625 Q1.0625 -15.078125,2.09375 -16.15625 Q3.140625 -17.234375,4.75 -17.234375 Q6.390625 -17.234375,7.421875 -16.15625 Q8.453125 -15.078125,8.453125 -13.015625 Q8.453125 -10.96875,7.421875 -9.875 Q6.390625 -8.78125,4.75 -8.78125 Z M4.75 -10.265625 Q5.734375 -10.265625,6.21875 -10.984375 Q6.71875 -11.71875,6.71875 -13.015625 Q6.71875 -14.296875,6.21875 -15.015625 Q5.734375 -15.75,4.75 -15.75 Q3.796875 -15.75,3.28125 -15.015625 Q2.78125 -14.296875,2.78125 -13.015625 Q2.78125 -11.71875,3.28125 -10.984375 Q3.796875 -10.265625,4.75 -10.265625 Z M14.5 0.1875 Q12.890625 0.1875,11.84375 -0.890625 Q10.796875 -1.984375,10.796875 -4.03125 Q10.796875 -6.09375,11.84375 -7.171875 Q12.890625 -8.25,14.5 -8.25 Q16.125 -8.25,17.15625 -7.171875 Q18.1875 -6.09375,18.1875 -4.03125 Q18.1875 -1.984375,17.15625 -0.890625 Q16.125 0.1875,14.5 0.1875 Z M14.5 -1.296875 Q15.484375 -1.296875,15.96875 -2.015625 Q16.46875 -2.734375,16.46875 -4.03125 Q16.46875 -5.328125,15.96875 -6.046875 Q15.484375 -6.765625,14.5 -6.765625 Q13.53125 -6.765625,13.03125 -6.046875 Q12.53125 -5.328125,12.53125 -4.03125 Q12.53125 -2.734375,13.03125 -2.015625 Q13.53125 -1.296875,14.5 -1.296875 Z M2.78125 -0 L14.546875 -17.046875 L16.46875 -17.046875 L4.703125 -0 Z " fill="rgba(0,0,0,1.000)" transform="matrix(1,0,0,1,140.832,406)"/>
    <path d="M2.15625 2.640625 L0.359375 2.640625 Q1.875 0.046875,2.640625 -2.53125 Q3.40625 -5.109375,3.40625 -7.6875 Q3.40625 -12.8125,0.359375 -18 L2.15625 -18 Q5.5 -13.015625,5.5 -7.6875 Q5.5 -2.375,2.15625 2.640625 Z " fill="rgba(0,0,0,1.000)" transform="matrix(1,0,0,1,160.08,406)"/>
    <g transform="matrix(1,0,0,1,282,218)">
        <image href="assets/images/yeecord.png" x="0" y="0" width="150" height="150"/>
    </g>
    <path d="M6.546875 0.28125 Q4.796875 0.28125,3.609375 -0.265625 Q2.421875 -0.8125,1.78125 -1.78125 Q1.15625 -2.765625,1.0625 -4.015625 L3.171875 -4.15625 Q3.359375 -3,4.109375 -2.3125 Q4.875 -1.625,6.546875 -1.625 Q7.84375 -1.625,8.546875 -2.046875 Q9.265625 -2.46875,9.265625 -3.40625 Q9.265625 -3.90625,9.03125 -4.234375 Q8.8125 -4.578125,8.140625 -4.828125 Q7.46875 -5.09375,6.171875 -5.328125 Q4.390625 -5.65625,3.375 -6.15625 Q2.375 -6.671875,1.96875 -7.390625 Q1.5625 -8.109375,1.5625 -9.125 Q1.5625 -10.828125,2.8125 -11.921875 Q4.078125 -13.015625,6.390625 -13.015625 Q8.0625 -13.015625,9.125 -12.421875 Q10.203125 -11.828125,10.75 -10.890625 Q11.296875 -9.953125,11.421875 -8.921875 L9.3125 -8.78125 Q9.265625 -9.390625,8.953125 -9.90625 Q8.640625 -10.4375,8.015625 -10.765625 Q7.390625 -11.09375,6.34375 -11.09375 Q4.96875 -11.09375,4.3125 -10.5625 Q3.671875 -10.03125,3.671875 -9.21875 Q3.671875 -8.59375,3.921875 -8.1875 Q4.171875 -7.796875,4.8125 -7.546875 Q5.453125 -7.296875,6.546875 -7.109375 Q8.421875 -6.796875,9.46875 -6.3125 Q10.53125 -5.828125,10.953125 -5.125 Q11.375 -4.421875,11.375 -3.40625 Q11.375 -1.65625,10.015625 -0.6875 Q8.65625 0.28125,6.546875 0.28125 Z " fill="rgba(0,0,0,1.000)" transform="matrix(1,0,0,1,296,406)"/>
    <path d="M6.890625 0.28125 Q5.09375 0.28125,3.78125 -0.53125 Q2.46875 -1.34375,1.765625 -2.84375 Q1.0625 -4.34375,1.0625 -6.359375 Q1.0625 -8.375,1.765625 -9.859375 Q2.46875 -11.359375,3.75 -12.1875 Q5.046875 -13.015625,6.796875 -13.015625 Q8.453125 -13.015625,9.71875 -12.234375 Q10.984375 -11.453125,11.6875 -9.953125 Q12.40625 -8.46875,12.40625 -6.34375 L12.40625 -5.734375 L3.171875 -5.734375 Q3.28125 -3.703125,4.25 -2.65625 Q5.234375 -1.625,6.890625 -1.625 Q8.140625 -1.625,8.9375 -2.21875 Q9.75 -2.8125,10.0625 -3.765625 L12.21875 -3.59375 Q11.71875 -1.890625,10.3125 -0.796875 Q8.90625 0.28125,6.890625 0.28125 Z M3.171875 -7.515625 L10.203125 -7.515625 Q10.0625 -9.359375,9.125 -10.21875 Q8.203125 -11.09375,6.796875 -11.09375 Q5.328125 -11.09375,4.375 -10.1875 Q3.4375 -9.28125,3.171875 -7.515625 Z " fill="rgba(0,0,0,1.000)" transform="matrix(1,0,0,1,308.24,406)"/>
    <path d="M1.921875 3.59375 L1.921875 -12.71875 L3.796875 -12.71875 L3.84375 -9.984375 L3.546875 -10.125 Q4.03125 -11.546875,5.140625 -12.28125 Q6.265625 -13.015625,7.734375 -13.015625 Q9.625 -13.015625,10.828125 -12.078125 Q12.046875 -11.140625,12.625 -9.625 Q13.21875 -8.109375,13.21875 -6.359375 Q13.21875 -4.609375,12.625 -3.09375 Q12.046875 -1.578125,10.828125 -0.640625 Q9.625 0.28125,7.734375 0.28125 Q6.75 0.28125,5.890625 -0.046875 Q5.046875 -0.390625,4.453125 -0.984375 Q3.859375 -1.578125,3.640625 -2.40625 L3.9375 -2.734375 L3.9375 3.59375 Z M7.53125 -1.625 Q9.1875 -1.625,10.140625 -2.875 Q11.109375 -4.125,11.109375 -6.359375 Q11.109375 -8.59375,10.140625 -9.84375 Q9.1875 -11.09375,7.53125 -11.09375 Q6.4375 -11.09375,5.625 -10.5625 Q4.828125 -10.03125,4.375 -8.96875 Q3.9375 -7.921875,3.9375 -6.359375 Q3.9375 -4.796875,4.359375 -3.734375 Q4.796875 -2.6875,5.609375 -2.15625 Q6.4375 -1.625,7.53125 -1.625 Z " fill="rgba(0,0,0,1.000)" transform="matrix(1,0,0,1,321.464,406)"/>
    <path d="M1.921875 -0 L1.921875 -12.71875 L3.9375 -12.71875 L3.9375 -0 Z M1.875 -14.71875 L1.875 -17.0625 L3.984375 -17.0625 L3.984375 -14.71875 Z " fill="rgba(0,0,0,1.000)" transform="matrix(1,0,0,1,335.504,406)"/>
    <path d="M5.359375 0.28125 Q3.390625 0.28125,2.21875 -0.625 Q1.0625 -1.53125,1.0625 -3.171875 Q1.0625 -4.796875,2.015625 -5.734375 Q2.96875 -6.671875,5.0625 -7.0625 L9.578125 -7.890625 Q9.578125 -9.5,8.8125 -10.296875 Q8.0625 -11.09375,6.546875 -11.09375 Q5.234375 -11.09375,4.46875 -10.5 Q3.703125 -9.90625,3.40625 -8.8125 L1.265625 -8.96875 Q1.625 -10.78125,3 -11.890625 Q4.390625 -13.015625,6.546875 -13.015625 Q9 -13.015625,10.296875 -11.625 Q11.59375 -10.25,11.59375 -7.828125 L11.59375 -2.5625 Q11.59375 -2.140625,11.75 -1.953125 Q11.90625 -1.78125,12.265625 -1.78125 L12.765625 -1.78125 L12.765625 -0 Q12.671875 0.03125,12.453125 0.03125 Q12.234375 0.046875,12 0.046875 Q11.140625 0.046875,10.59375 -0.21875 Q10.0625 -0.5,9.8125 -1.09375 Q9.578125 -1.6875,9.578125 -2.640625 L9.8125 -2.59375 Q9.640625 -1.78125,9 -1.109375 Q8.359375 -0.453125,7.390625 -0.078125 Q6.4375 0.28125,5.359375 0.28125 Z M5.546875 -1.484375 Q6.8125 -1.484375,7.703125 -1.96875 Q8.609375 -2.46875,9.09375 -3.3125 Q9.578125 -4.171875,9.578125 -5.234375 L9.578125 -6.140625 L5.453125 -5.375 Q4.15625 -5.140625,3.65625 -4.640625 Q3.171875 -4.15625,3.171875 -3.359375 Q3.171875 -2.46875,3.796875 -1.96875 Q4.4375 -1.484375,5.546875 -1.484375 Z " fill="rgba(0,0,0,1.000)" transform="matrix(1,0,0,1,341.12,406)"/>
    <path d="M4.421875 2.640625 Q1.078125 -2.375,1.078125 -7.6875 Q1.078125 -13.015625,4.421875 -18 L6.21875 -18 Q3.171875 -12.8125,3.171875 -7.6875 Q3.171875 -5.109375,3.9375 -2.53125 Q4.703125 0.046875,6.21875 2.640625 Z " fill="rgba(0,0,0,1.000)" transform="matrix(1,0,0,1,354.344,406)"/>
    <path d="M7.484375 0.390625 Q5.6875 0.390625,4.375 -0.203125 Q3.078125 -0.8125,2.3125 -1.890625 Q1.5625 -2.96875,1.4375 -4.390625 L3.59375 -4.53125 Q3.796875 -3.09375,4.828125 -2.359375 Q5.875 -1.625,7.484375 -1.625 Q9.28125 -1.625,10.34375 -2.640625 Q11.40625 -3.671875,11.40625 -5.46875 Q11.40625 -6.671875,10.9375 -7.546875 Q10.46875 -8.421875,9.578125 -8.90625 Q8.6875 -9.390625,7.4375 -9.390625 Q6.265625 -9.390625,5.296875 -8.875 Q4.34375 -8.375,3.9375 -7.46875 L1.734375 -7.46875 L2.859375 -17.046875 L12.40625 -17.046875 L12.40625 -15.03125 L4.75 -15.03125 L3.984375 -8.734375 L3.59375 -9.125 Q3.984375 -9.859375,4.609375 -10.34375 Q5.25 -10.84375,6.078125 -11.09375 Q6.90625 -11.359375,7.828125 -11.359375 Q9.53125 -11.359375,10.828125 -10.59375 Q12.125 -9.84375,12.84375 -8.5 Q13.5625 -7.171875,13.5625 -5.46875 Q13.5625 -3.765625,12.796875 -2.4375 Q12.03125 -1.109375,10.65625 -0.359375 Q9.28125 0.390625,7.484375 0.390625 Z " fill="rgba(0,0,0,1.000)" transform="matrix(1,0,0,1,360.91998,406)"/>
    <path d="M7.9375 0.390625 Q5.875 0.390625,4.359375 -0.6875 Q2.859375 -1.78125,2.03125 -3.765625 Q1.203125 -5.765625,1.203125 -8.5 Q1.203125 -11.234375,2.03125 -13.234375 Q2.859375 -15.234375,4.359375 -16.328125 Q5.875 -17.421875,7.9375 -17.421875 Q10.03125 -17.421875,11.546875 -16.328125 Q13.0625 -15.234375,13.890625 -13.234375 Q14.71875 -11.25,14.71875 -8.5 Q14.71875 -5.765625,13.890625 -3.765625 Q13.0625 -1.78125,11.546875 -0.6875 Q10.03125 0.390625,7.9375 0.390625 Z M7.9375 -1.625 Q10.15625 -1.625,11.34375 -3.40625 Q12.546875 -5.203125,12.546875 -8.5 Q12.546875 -10.703125,12 -12.25 Q11.46875 -13.796875,10.453125 -14.59375 Q9.4375 -15.40625,7.9375 -15.40625 Q6.484375 -15.40625,5.453125 -14.59375 Q4.4375 -13.796875,3.890625 -12.25 Q3.359375 -10.703125,3.359375 -8.5 Q3.359375 -5.203125,4.5625 -3.40625 Q5.765625 -1.625,7.9375 -1.625 Z " fill="rgba(0,0,0,1.000)" transform="matrix(1,0,0,1,375.464,406)"/>
    <path d="M4.75 -8.78125 Q3.140625 -8.78125,2.09375 -9.875 Q1.0625 -10.96875,1.0625 -13.015625 Q1.0625 -15.078125,2.09375 -16.15625 Q3.140625 -17.234375,4.75 -17.234375 Q6.390625 -17.234375,7.421875 -16.15625 Q8.453125 -15.078125,8.453125 -13.015625 Q8.453125 -10.96875,7.421875 -9.875 Q6.390625 -8.78125,4.75 -8.78125 Z M4.75 -10.265625 Q5.734375 -10.265625,6.21875 -10.984375 Q6.71875 -11.71875,6.71875 -13.015625 Q6.71875 -14.296875,6.21875 -15.015625 Q5.734375 -15.75,4.75 -15.75 Q3.796875 -15.75,3.28125 -15.015625 Q2.78125 -14.296875,2.78125 -13.015625 Q2.78125 -11.71875,3.28125 -10.984375 Q3.796875 -10.265625,4.75 -10.265625 Z M14.5 0.1875 Q12.890625 0.1875,11.84375 -0.890625 Q10.796875 -1.984375,10.796875 -4.03125 Q10.796875 -6.09375,11.84375 -7.171875 Q12.890625 -8.25,14.5 -8.25 Q16.125 -8.25,17.15625 -7.171875 Q18.1875 -6.09375,18.1875 -4.03125 Q18.1875 -1.984375,17.15625 -0.890625 Q16.125 0.1875,14.5 0.1875 Z M14.5 -1.296875 Q15.484375 -1.296875,15.96875 -2.015625 Q16.46875 -2.734375,16.46875 -4.03125 Q16.46875 -5.328125,15.96875 -6.046875 Q15.484375 -6.765625,14.5 -6.765625 Q13.53125 -6.765625,13.03125 -6.046875 Q12.53125 -5.328125,12.53125 -4.03125 Q12.53125 -2.734375,13.03125 -2.015625 Q13.53125 -1.296875,14.5 -1.296875 Z M2.78125 -0 L14.546875 -17.046875 L16.46875 -17.046875 L4.703125 -0 Z " fill="rgba(0,0,0,1.000)" transform="matrix(1,0,0,1,391.376,406)"/>
    <path d="M2.15625 2.640625 L0.359375 2.640625 Q1.875 0.046875,2.640625 -2.53125 Q3.40625 -5.109375,3.40625 -7.6875 Q3.40625 -12.8125,0.359375 -18 L2.15625 -18 Q5.5 -13.015625,5.5 -7.6875 Q5.5 -2.375,2.15625 2.640625 Z " fill="rgba(0,0,0,1.000)" transform="matrix(1,0,0,1,410.624,406)"/>
    <g transform="matrix(1,0,0,1,525,218)">
        <image href="assets/images/yeecord.png" x="0" y="0" width="150" height="150"/>
    </g>
    <path d="M6.546875 0.28125 Q4.796875 0.28125,3.609375 -0.265625 Q2.421875 -0.8125,1.78125 -1.78125 Q1.15625 -2.765625,1.0625 -4.015625 L3.171875 -4.15625 Q3.359375 -3,4.109375 -2.3125 Q4.875 -1.625,6.546875 -1.625 Q7.84375 -1.625,8.546875 -2.046875 Q9.265625 -2.46875,9.265625 -3.40625 Q9.265625 -3.90625,9.03125 -4.234375 Q8.8125 -4.578125,8.140625 -4.828125 Q7.46875 -5.09375,6.171875 -5.328125 Q4.390625 -5.65625,3.375 -6.15625 Q2.375 -6.671875,1.96875 -7.390625 Q1.5625 -8.109375,1.5625 -9.125 Q1.5625 -10.828125,2.8125 -11.921875 Q4.078125 -13.015625,6.390625 -13.015625 Q8.0625 -13.015625,9.125 -12.421875 Q10.203125 -11.828125,10.75 -10.890625 Q11.296875 -9.953125,11.421875 -8.921875 L9.3125 -8.78125 Q9.265625 -9.390625,8.953125 -9.90625 Q8.640625 -10.4375,8.015625 -10.765625 Q7.390625 -11.09375,6.34375 -11.09375 Q4.96875 -11.09375,4.3125 -10.5625 Q3.671875 -10.03125,3.671875 -9.21875 Q3.671875 -8.59375,3.921875 -8.1875 Q4.171875 -7.796875,4.8125 -7.546875 Q5.453125 -7.296875,6.546875 -7.109375 Q8.421875 -6.796875,9.46875 -6.3125 Q10.53125 -5.828125,10.953125 -5.125 Q11.375 -4.421875,11.375 -3.40625 Q11.375 -1.65625,10.015625 -0.6875 Q8.65625 0.28125,6.546875 0.28125 Z " fill="rgba(0,0,0,1.000)" transform="matrix(1,0,0,1,540,406)"/>
    <path d="M6.890625 0.28125 Q5.09375 0.28125,3.78125 -0.53125 Q2.46875 -1.34375,1.765625 -2.84375 Q1.0625 -4.34375,1.0625 -6.359375 Q1.0625 -8.375,1.765625 -9.859375 Q2.46875 -11.359375,3.75 -12.1875 Q5.046875 -13.015625,6.796875 -13.015625 Q8.453125 -13.015625,9.71875 -12.234375 Q10.984375 -11.453125,11.6875 -9.953125 Q12.40625 -8.46875,12.40625 -6.34375 L12.40625 -5.734375 L3.171875 -5.734375 Q3.28125 -3.703125,4.25 -2.65625 Q5.234375 -1.625,6.890625 -1.625 Q8.140625 -1.625,8.9375 -2.21875 Q9.75 -2.8125,10.0625 -3.765625 L12.21875 -3.59375 Q11.71875 -1.890625,10.3125 -0.796875 Q8.90625 0.28125,6.890625 0.28125 Z M3.171875 -7.515625 L10.203125 -7.515625 Q10.0625 -9.359375,9.125 -10.21875 Q8.203125 -11.09375,6.796875 -11.09375 Q5.328125 -11.09375,4.375 -10.1875 Q3.4375 -9.28125,3.171875 -7.515625 Z " fill="rgba(0,0,0,1.000)" transform="matrix(1,0,0,1,552.24,406)"/>
    <path d="M1.921875 3.59375 L1.921875 -12.71875 L3.796875 -12.71875 L3.84375 -9.984375 L3.546875 -10.125 Q4.03125 -11.546875,5.140625 -12.28125 Q6.265625 -13.015625,7.734375 -13.015625 Q9.625 -13.015625,10.828125 -12.078125 Q12.046875 -11.140625,12.625 -9.625 Q13.21875 -8.109375,13.21875 -6.359375 Q13.21875 -4.609375,12.625 -3.09375 Q12.046875 -1.578125,10.828125 -0.640625 Q9.625 0.28125,7.734375 0.28125 Q6.75 0.28125,5.890625 -0.046875 Q5.046875 -0.390625,4.453125 -0.984375 Q3.859375 -1.578125,3.640625 -2.40625 L3.9375 -2.734375 L3.9375 3.59375 Z M7.53125 -1.625 Q9.1875 -1.625,10.140625 -2.875 Q11.109375 -4.125,11.109375 -6.359375 Q11.109375 -8.59375,10.140625 -9.84375 Q9.1875 -11.09375,7.53125 -11.09375 Q6.4375 -11.09375,5.625 -10.5625 Q4.828125 -10.03125,4.375 -8.96875 Q3.9375 -7.921875,3.9375 -6.359375 Q3.9375 -4.796875,4.359375 -3.734375 Q4.796875 -2.6875,5.609375 -2.15625 Q6.4375 -1.625,7.53125 -1.625 Z " fill="rgba(0,0,0,1.000)" transform="matrix(1,0,0,1,565.464,406)"/>
    <path d="M1.921875 -0 L1.921875 -12.71875 L3.9375 -12.71875 L3.9375 -0 Z M1.875 -14.71875 L1.875 -17.0625 L3.984375 -17.0625 L3.984375 -14.71875 Z " fill="rgba(0,0,0,1.000)" transform="matrix(1,0,0,1,579.504,406)"/>
    <path d="M5.359375 0.28125 Q3.390625 0.28125,2.21875 -0.625 Q1.0625 -1.53125,1.0625 -3.171875 Q1.0625 -4.796875,2.015625 -5.734375 Q2.96875 -6.671875,5.0625 -7.0625 L9.578125 -7.890625 Q9.578125 -9.5,8.8125 -10.296875 Q8.0625 -11.09375,6.546875 -11.09375 Q5.234375 -11.09375,4.46875 -10.5 Q3.703125 -9.90625,3.40625 -8.8125 L1.265625 -8.96875 Q1.625 -10.78125,3 -11.890625 Q4.390625 -13.015625,6.546875 -13.015625 Q9 -13.015625,10.296875 -11.625 Q11.59375 -10.25,11.59375 -7.828125 L11.59375 -2.5625 Q11.59375 -2.140625,11.75 -1.953125 Q11.90625 -1.78125,12.265625 -1.78125 L12.765625 -1.78125 L12.765625 -0 Q12.671875 0.03125,12.453125 0.03125 Q12.234375 0.046875,12 0.046875 Q11.140625 0.046875,10.59375 -0.21875 Q10.0625 -0.5,9.8125 -1.09375 Q9.578125 -1.6875,9.578125 -2.640625 L9.8125 -2.59375 Q9.640625 -1.78125,9 -1.109375 Q8.359375 -0.453125,7.390625 -0.078125 Q6.4375 0.28125,5.359375 0.28125 Z M5.546875 -1.484375 Q6.8125 -1.484375,7.703125 -1.96875 Q8.609375 -2.46875,9.09375 -3.3125 Q9.578125 -4.171875,9.578125 -5.234375 L9.578125 -6.140625 L5.453125 -5.375 Q4.15625 -5.140625,3.65625 -4.640625 Q3.171875 -4.15625,3.171875 -3.359375 Q3.171875 -2.46875,3.796875 -1.96875 Q4.4375 -1.484375,5.546875 -1.484375 Z " fill="rgba(0,0,0,1.000)" transform="matrix(1,0,0,1,585.12,406)"/>
    <path d="M4.421875 2.640625 Q1.078125 -2.375,1.078125 -7.6875 Q1.078125 -13.015625,4.421875 -18 L6.21875 -18 Q3.171875 -12.8125,3.171875 -7.6875 Q3.171875 -5.109375,3.9375 -2.53125 Q4.703125 0.046875,6.21875 2.640625 Z " fill="rgba(0,0,0,1.000)" transform="matrix(1,0,0,1,598.344,406)"/>
    <path d="M4.265625 -0 Q4.265625 -2.640625,4.984375 -5.265625 Q5.71875 -7.890625,7.0625 -10.359375 Q8.421875 -12.84375,10.3125 -15.03125 L0.484375 -15.03125 L0.484375 -17.046875 L12.578125 -17.046875 L12.578125 -15.171875 Q10.4375 -12.71875,9.0625 -10.328125 Q7.6875 -7.9375,7.03125 -5.40625 Q6.390625 -2.875,6.390625 -0 Z " fill="rgba(0,0,0,1.000)" transform="matrix(1,0,0,1,604.92,406)"/>
    <path d="M7.484375 0.390625 Q5.6875 0.390625,4.375 -0.203125 Q3.078125 -0.8125,2.3125 -1.890625 Q1.5625 -2.96875,1.4375 -4.390625 L3.59375 -4.53125 Q3.796875 -3.09375,4.828125 -2.359375 Q5.875 -1.625,7.484375 -1.625 Q9.28125 -1.625,10.34375 -2.640625 Q11.40625 -3.671875,11.40625 -5.46875 Q11.40625 -6.671875,10.9375 -7.546875 Q10.46875 -8.421875,9.578125 -8.90625 Q8.6875 -9.390625,7.4375 -9.390625 Q6.265625 -9.390625,5.296875 -8.875 Q4.34375 -8.375,3.9375 -7.46875 L1.734375 -7.46875 L2.859375 -17.046875 L12.40625 -17.046875 L12.40625 -15.03125 L4.75 -15.03125 L3.984375 -8.734375 L3.59375 -9.125 Q3.984375 -9.859375,4.609375 -10.34375 Q5.25 -10.84375,6.078125 -11.09375 Q6.90625 -11.359375,7.828125 -11.359375 Q9.53125 -11.359375,10.828125 -10.59375 Q12.125 -9.84375,12.84375 -8.5 Q13.5625 -7.171875,13.5625 -5.46875 Q13.5625 -3.765625,12.796875 -2.4375 Q12.03125 -1.109375,10.65625 -0.359375 Q9.28125 0.390625,7.484375 0.390625 Z " fill="rgba(0,0,0,1.000)" transform="matrix(1,0,0,1,617.496,406)"/>
    <path d="M4.75 -8.78125 Q3.140625 -8.78125,2.09375 -9.875 Q1.0625 -10.96875,1.0625 -13.015625 Q1.0625 -15.078125,2.09375 -16.15625 Q3.140625 -17.234375,4.75 -17.234375 Q6.390625 -17.234375,7.421875 -16.15625 Q8.453125 -15.078125,8.453125 -13.015625 Q8.453125 -10.96875,7.421875 -9.875 Q6.390625 -8.78125,4.75 -8.78125 Z M4.75 -10.265625 Q5.734375 -10.265625,6.21875 -10.984375 Q6.71875 -11.71875,6.71875 -13.015625 Q6.71875 -14.296875,6.21875 -15.015625 Q5.734375 -15.75,4.75 -15.75 Q3.796875 -15.75,3.28125 -15.015625 Q2.78125 -14.296875,2.78125 -13.015625 Q2.78125 -11.71875,3.28125 -10.984375 Q3.796875 -10.265625,4.75 -10.265625 Z M14.5 0.1875 Q12.890625 0.1875,11.84375 -0.890625 Q10.796875 -1.984375,10.796875 -4.03125 Q10.796875 -6.09375,11.84375 -7.171875 Q12.890625 -8.25,14.5 -8.25 Q16.125 -8.25,17.15625 -7.171875 Q18.1875 -6.09375,18.1875 -4.03125 Q18.1875 -1.984375,17.15625 -0.890625 Q16.125 0.1875,14.5 0.1875 Z M14.5 -1.296875 Q15.484375 -1.296875,15.96875 -2.015625 Q16.46875 -2.734375,16.46875 -4.03125 Q16.46875 -5.328125,15.96875 -6.046875 Q15.484375 -6.765625,14.5 -6.765625 Q13.53125 -6.765625,13.03125 -6.046875 Q12.53125 -5.328125,12.53125 -4.03125 Q12.53125 -2.734375,13.03125 -2.015625 Q13.53125 -1.296875,14.5 -1.296875 Z M2.78125 -0 L14.546875 -17.046875 L16.46875 -17.046875 L4.703125 -0 Z " fill="rgba(0,0,0,1.000)" transform="matrix(1,0,0,1,632.52,406)"/>
    <path d="M2.15625 2.640625 L0.359375 2.640625 Q1.875 0.046875,2.640625 -2.53125 Q3.40625 -5.109375,3.40625 -7.6875 Q3.40625 -12.8125,0.359375 -18 L2.15625 -18 Q5.5 -13.015625,5.5 -7.6875 Q5.5 -2.375,2.15625 2.640625 Z " fill="rgba(0,0,0,1.000)" transform="matrix(1,0,0,1,651.768,406)"/>
    <g transform="matrix(1,0,0,1,769,218)">
        <image href="assets/images/yeecord.png" x="0" y="0" width="150" height="150"/>
    </g>
    <path d="M6.546875 0.28125 Q4.796875 0.28125,3.609375 -0.265625 Q2.421875 -0.8125,1.78125 -1.78125 Q1.15625 -2.765625,1.0625 -4.015625 L3.171875 -4.15625 Q3.359375 -3,4.109375 -2.3125 Q4.875 -1.625,6.546875 -1.625 Q7.84375 -1.625,8.546875 -2.046875 Q9.265625 -2.46875,9.265625 -3.40625 Q9.265625 -3.90625,9.03125 -4.234375 Q8.8125 -4.578125,8.140625 -4.828125 Q7.46875 -5.09375,6.171875 -5.328125 Q4.390625 -5.65625,3.375 -6.15625 Q2.375 -6.671875,1.96875 -7.390625 Q1.5625 -8.109375,1.5625 -9.125 Q1.5625 -10.828125,2.8125 -11.921875 Q4.078125 -13.015625,6.390625 -13.015625 Q8.0625 -13.015625,9.125 -12.421875 Q10.203125 -11.828125,10.75 -10.890625 Q11.296875 -9.953125,11.421875 -8.921875 L9.3125 -8.78125 Q9.265625 -9.390625,8.953125 -9.90625 Q8.640625 -10.4375,8.015625 -10.765625 Q7.390625 -11.09375,6.34375 -11.09375 Q4.96875 -11.09375,4.3125 -10.5625 Q3.671875 -10.03125,3.671875 -9.21875 Q3.671875 -8.59375,3.921875 -8.1875 Q4.171875 -7.796875,4.8125 -7.546875 Q5.453125 -7.296875,6.546875 -7.109375 Q8.421875 -6.796875,9.46875 -6.3125 Q10.53125 -5.828125,10.953125 -5.125 Q11.375 -4.421875,11.375 -3.40625 Q11.375 -1.65625,10.015625 -0.6875 Q8.65625 0.28125,6.546875 0.28125 Z " fill="rgba(0,0,0,1.000)" transform="matrix(1,0,0,1,778,406)"/>
    <path d="M6.890625 0.28125 Q5.09375 0.28125,3.78125 -0.53125 Q2.46875 -1.34375,1.765625 -2.84375 Q1.0625 -4.34375,1.0625 -6.359375 Q1.0625 -8.375,1.765625 -9.859375 Q2.46875 -11.359375,3.75 -12.1875 Q5.046875 -13.015625,6.796875 -13.015625 Q8.453125 -13.015625,9.71875 -12.234375 Q10.984375 -11.453125,11.6875 -9.953125 Q12.40625 -8.46875,12.40625 -6.34375 L12.40625 -5.734375 L3.171875 -5.734375 Q3.28125 -3.703125,4.25 -2.65625 Q5.234375 -1.625,6.890625 -1.625 Q8.140625 -1.625,8.9375 -2.21875 Q9.75 -2.8125,10.0625 -3.765625 L12.21875 -3.59375 Q11.71875 -1.890625,10.3125 -0.796875 Q8.90625 0.28125,6.890625 0.28125 Z M3.171875 -7.515625 L10.203125 -7.515625 Q10.0625 -9.359375,9.125 -10.21875 Q8.203125 -11.09375,6.796875 -11.09375 Q5.328125 -11.09375,4.375 -10.1875 Q3.4375 -9.28125,3.171875 -7.515625 Z " fill="rgba(0,0,0,1.000)" transform="matrix(1,0,0,1,790.24,406)"/>
    <path d="M1.921875 3.59375 L1.921875 -12.71875 L3.796875 -12.71875 L3.84375 -9.984375 L3.546875 -10.125 Q4.03125 -11.546875,5.140625 -12.28125 Q6.265625 -13.015625,7.734375 -13.015625 Q9.625 -13.015625,10.828125 -12.078125 Q12.046875 -11.140625,12.625 -9.625 Q13.21875 -8.109375,13.21875 -6.359375 Q13.21875 -4.609375,12.625 -3.09375 Q12.046875 -1.578125,10.828125 -0.640625 Q9.625 0.28125,7.734375 0.28125 Q6.75 0.28125,5.890625 -0.046875 Q5.046875 -0.390625,4.453125 -0.984375 Q3.859375 -1.578125,3.640625 -2.40625 L3.9375 -2.734375 L3.9375 3.59375 Z M7.53125 -1.625 Q9.1875 -1.625,10.140625 -2.875 Q11.109375 -4.125,11.109375 -6.359375 Q11.109375 -8.59375,10.140625 -9.84375 Q9.1875 -11.09375,7.53125 -11.09375 Q6.4375 -11.09375,5.625 -10.5625 Q4.828125 -10.03125,4.375 -8.96875 Q3.9375 -7.921875,3.9375 -6.359375 Q3.9375 -4.796875,4.359375 -3.734375 Q4.796875 -2.6875,5.609375 -2.15625 Q6.4375 -1.625,7.53125 -1.625 Z " fill="rgba(0,0,0,1.000)" transform="matrix(1,0,0,1,803.464,406)"/>
    <path d="M1.921875 -0 L1.921875 -12.71875 L3.9375 -12.71875 L3.9375 -0 Z M1.875 -14.71875 L1.875 -17.0625 L3.984375 -17.0625 L3.984375 -14.71875 Z " fill="rgba(0,0,0,1.000)" transform="matrix(1,0,0,1,817.504,406)"/>
    <path d="M5.359375 0.28125 Q3.390625 0.28125,2.21875 -0.625 Q1.0625 -1.53125,1.0625 -3.171875 Q1.0625 -4.796875,2.015625 -5.734375 Q2.96875 -6.671875,5.0625 -7.0625 L9.578125 -7.890625 Q9.578125 -9.5,8.8125 -10.296875 Q8.0625 -11.09375,6.546875 -11.09375 Q5.234375 -11.09375,4.46875 -10.5 Q3.703125 -9.90625,3.40625 -8.8125 L1.265625 -8.96875 Q1.625 -10.78125,3 -11.890625 Q4.390625 -13.015625,6.546875 -13.015625 Q9 -13.015625,10.296875 -11.625 Q11.59375 -10.25,11.59375 -7.828125 L11.59375 -2.5625 Q11.59375 -2.140625,11.75 -1.953125 Q11.90625 -1.78125,12.265625 -1.78125 L12.765625 -1.78125 L12.765625 -0 Q12.671875 0.03125,12.453125 0.03125 Q12.234375 0.046875,12 0.046875 Q11.140625 0.046875,10.59375 -0.21875 Q10.0625 -0.5,9.8125 -1.09375 Q9.578125 -1.6875,9.578125 -2.640625 L9.8125 -2.59375 Q9.640625 -1.78125,9 -1.109375 Q8.359375 -0.453125,7.390625 -0.078125 Q6.4375 0.28125,5.359375 0.28125 Z M5.546875 -1.484375 Q6.8125 -1.484375,7.703125 -1.96875 Q8.609375 -2.46875,9.09375 -3.3125 Q9.578125 -4.171875,9.578125 -5.234375 L9.578125 -6.140625 L5.453125 -5.375 Q4.15625 -5.140625,3.65625 -4.640625 Q3.171875 -4.15625,3.171875 -3.359375 Q3.171875 -2.46875,3.796875 -1.96875 Q4.4375 -1.484375,5.546875 -1.484375 Z " fill="rgba(0,0,0,1.000)" transform="matrix(1,0,0,1,823.12,406)"/>
    <path d="M4.421875 2.640625 Q1.078125 -2.375,1.078125 -7.6875 Q1.078125 -13.015625,4.421875 -18 L6.21875 -18 Q3.171875 -12.8125,3.171875 -7.6875 Q3.171875 -5.109375,3.9375 -2.53125 Q4.703125 0.046875,6.21875 2.640625 Z " fill="rgba(0,0,0,1.000)" transform="matrix(1,0,0,1,836.344,406)"/>
    <path d="M4.515625 -0 L4.515625 -12.625 L0.953125 -12.625 L0.953125 -14.40625 L2.40625 -14.40625 Q3.34375 -14.40625,3.90625 -14.640625 Q4.46875 -14.875,4.703125 -15.453125 Q4.9375 -16.03125,4.9375 -17.046875 L6.578125 -17.046875 L6.578125 -0 Z " fill="rgba(0,0,0,1.000)" transform="matrix(1,0,0,1,842.92,406)"/>
    <path d="M7.9375 0.390625 Q5.875 0.390625,4.359375 -0.6875 Q2.859375 -1.78125,2.03125 -3.765625 Q1.203125 -5.765625,1.203125 -8.5 Q1.203125 -11.234375,2.03125 -13.234375 Q2.859375 -15.234375,4.359375 -16.328125 Q5.875 -17.421875,7.9375 -17.421875 Q10.03125 -17.421875,11.546875 -16.328125 Q13.0625 -15.234375,13.890625 -13.234375 Q14.71875 -11.25,14.71875 -8.5 Q14.71875 -5.765625,13.890625 -3.765625 Q13.0625 -1.78125,11.546875 -0.6875 Q10.03125 0.390625,7.9375 0.390625 Z M7.9375 -1.625 Q10.15625 -1.625,11.34375 -3.40625 Q12.546875 -5.203125,12.546875 -8.5 Q12.546875 -10.703125,12 -12.25 Q11.46875 -13.796875,10.453125 -14.59375 Q9.4375 -15.40625,7.9375 -15.40625 Q6.484375 -15.40625,5.453125 -14.59375 Q4.4375 -13.796875,3.890625 -12.25 Q3.359375 -10.703125,3.359375 -8.5 Q3.359375 -5.203125,4.5625 -3.40625 Q5.765625 -1.625,7.9375 -1.625 Z " fill="rgba(0,0,0,1.000)" transform="matrix(1,0,0,1,851.896,406)"/>
    <path d="M7.9375 0.390625 Q5.875 0.390625,4.359375 -0.6875 Q2.859375 -1.78125,2.03125 -3.765625 Q1.203125 -5.765625,1.203125 -8.5 Q1.203125 -11.234375,2.03125 -13.234375 Q2.859375 -15.234375,4.359375 -16.328125 Q5.875 -17.421875,7.9375 -17.421875 Q10.03125 -17.421875,11.546875 -16.328125 Q13.0625 -15.234375,13.890625 -13.234375 Q14.71875 -11.25,14.71875 -8.5 Q14.71875 -5.765625,13.890625 -3.765625 Q13.0625 -1.78125,11.546875 -0.6875 Q10.03125 0.390625,7.9375 0.390625 Z M7.9375 -1.625 Q10.15625 -1.625,11.34375 -3.40625 Q12.546875 -5.203125,12.546875 -8.5 Q12.546875 -10.703125,12 -12.25 Q11.46875 -13.796875,10.453125 -14.59375 Q9.4375 -15.40625,7.9375 -15.40625 Q6.484375 -15.40625,5.453125 -14.59375 Q4.4375 -13.796875,3.890625 -12.25 Q3.359375 -10.703125,3.359375 -8.5 Q3.359375 -5.203125,4.5625 -3.40625 Q5.765625 -1.625,7.9375 -1.625 Z " fill="rgba(0,0,0,1.000)" transform="matrix(1,0,0,1,868.048,406)"/>
    <path d="M4.75 -8.78125 Q3.140625 -8.78125,2.09375 -9.875 Q1.0625 -10.96875,1.0625 -13.015625 Q1.0625 -15.078125,2.09375 -16.15625 Q3.140625 -17.234375,4.75 -17.234375 Q6.390625 -17.234375,7.421875 -16.15625 Q8.453125 -15.078125,8.453125 -13.015625 Q8.453125 -10.96875,7.421875 -9.875 Q6.390625 -8.78125,4.75 -8.78125 Z M4.75 -10.265625 Q5.734375 -10.265625,6.21875 -10.984375 Q6.71875 -11.71875,6.71875 -13.015625 Q6.71875 -14.296875,6.21875 -15.015625 Q5.734375 -15.75,4.75 -15.75 Q3.796875 -15.75,3.28125 -15.015625 Q2.78125 -14.296875,2.78125 -13.015625 Q2.78125 -11.71875,3.28125 -10.984375 Q3.796875 -10.265625,4.75 -10.265625 Z M14.5 0.1875 Q12.890625 0.1875,11.84375 -0.890625 Q10.796875 -1.984375,10.796875 -4.03125 Q10.796875 -6.09375,11.84375 -7.171875 Q12.890625 -8.25,14.5 -8.25 Q16.125 -8.25,17.15625 -7.171875 Q18.1875 -6.09375,18.1875 -4.03125 Q18.1875 -1.984375,17.15625 -0.890625 Q16.125 0.1875,14.5 0.1875 Z M14.5 -1.296875 Q15.484375 -1.296875,15.96875 -2.015625 Q16.46875 -2.734375,16.46875 -4.03125 Q16.46875 -5.328125,15.96875 -6.046875 Q15.484375 -6.765625,14.5 -6.765625 Q13.53125 -6.765625,13.03125 -6.046875 Q12.53125 -5.328125,12.53125 -4.03125 Q12.53125 -2.734375,13.03125 -2.015625 Q13.53125 -1.296875,14.5 -1.296875 Z M2.78125 -0 L14.546875 -17.046875 L16.46875 -17.046875 L4.703125 -0 Z " fill="rgba(0,0,0,1.000)" transform="matrix(1,0,0,1,883.96,406)"/>
    <path d="M2.15625 2.640625 L0.359375 2.640625 Q1.875 0.046875,2.640625 -2.53125 Q3.40625 -5.109375,3.40625 -7.6875 Q3.40625 -12.8125,0.359375 -18 L2.15625 -18 Q5.5 -13.015625,5.5 -7.6875 Q5.5 -2.375,2.15625 2.640625 Z " fill="rgba(0,0,0,1.000)" transform="matrix(1,0,0,1,903.208,406)"/>

</svg>
