<?xml version="1.0" encoding="UTF-8"?>
<svg xmlns="http://www.w3.org/2000/svg" viewBox="0 0 1200 630" width="1200" height="630">
    <rect x="0" y="0" width="1200" height="630" fill="rgba(240,240,240,1.000)"/>
    <g transform="matrix(1,0,0,1,440,110)">
        <image href="assets/images/yeecord.png" x="0" y="0" width="320" height="320"/>
    </g>
    <path d="M16.640625 0.765625 Q12.15625 0.765625,8.890625 -1.375 Q5.625 -3.53125,3.859375 -7.5 Q2.109375 -11.484375,2.109375 -16.984375 Q2.109375 -22.5,3.875 -26.5 Q5.65625 -30.515625,8.90625 -32.671875 Q12.15625 -34.84375,16.640625 -34.84375 Q21.125 -34.84375,24.359375 -32.671875 Q27.609375 -30.515625,29.375 -26.515625 Q31.15625 -22.515625,31.15625 -16.984375 Q31.15625 -11.515625,29.390625 -7.53125 Q27.640625 -3.546875,24.375 -1.390625 Q21.125 0.765625,16.640625 0.765625 Z M16.640625 -5.359375 Q20.015625 -5.359375,21.828125 -8.28125 Q23.640625 -11.21875,23.640625 -16.984375 Q23.640625 -20.859375,22.828125 -23.46875 Q22.015625 -26.078125,20.46875 -27.390625 Q18.921875 -28.71875,16.640625 -28.71875 Q14.375 -28.71875,12.796875 -27.390625 Q11.234375 -26.078125,10.421875 -23.46875 Q9.625 -20.859375,9.625 -16.984375 Q9.625 -11.21875,11.4375 -8.28125 Q13.25 -5.359375,16.640625 -5.359375 Z " fill="rgba(60,60,60,1.000)" transform="matrix(1,0,0,1,562,507)"/>
    <path d="M1.765625 -0 L1.765625 -7.359375 L9.578125 -7.359375 L9.578125 -0 Z " fill="rgba(60,60,60,1.000)" transform="matrix(1,0,0,1,595.264,507)"/>
    <path d="M16.015625 0.765625 Q11.84375 0.765625,8.96875 -0.484375 Q6.09375 -1.75,4.515625 -4.03125 Q2.953125 -6.328125,2.671875 -9.390625 L10.078125 -9.734375 Q10.5 -7.546875,12.015625 -6.46875 Q13.546875 -5.390625,16.015625 -5.390625 Q18.828125 -5.390625,20.421875 -6.953125 Q22.015625 -8.53125,22.015625 -11.34375 Q22.015625 -13.140625,21.28125 -14.484375 Q20.546875 -15.84375,19.203125 -16.59375 Q17.859375 -17.359375,15.96875 -17.359375 Q13.90625 -17.359375,12.4375 -16.453125 Q10.96875 -15.546875,10.34375 -14.15625 L3.046875 -14.15625 L5.421875 -34.078125 L27.171875 -34.078125 L27.171875 -27.953125 L11.640625 -27.953125 L10.390625 -17.984375 L9.5625 -18.703125 Q10.359375 -19.953125,11.578125 -20.84375 Q12.8125 -21.75,14.453125 -22.234375 Q16.09375 -22.734375,18.0625 -22.734375 Q21.59375 -22.734375,24.15625 -21.25 Q26.71875 -19.765625,28.109375 -17.1875 Q29.515625 -14.609375,29.515625 -11.34375 Q29.515625 -7.65625,27.84375 -4.90625 Q26.171875 -2.171875,23.140625 -0.703125 Q20.109375 0.765625,16.015625 0.765625 Z " fill="rgba(60,60,60,1.000)" transform="matrix(1,0,0,1,606.592,507)"/>

</svg>
