<?xml version="1.0" encoding="UTF-8"?>
<svg xmlns="http://www.w3.org/2000/svg" viewBox="0 0 1200 630" width="1200" height="630">
    <rect x="0" y="0" width="1200" height="630" fill="rgba(255,255,255,1.000)"/>
    <path d="M44.046875 1.921875 Q32.28125 1.921875,24 -1.796875 Q15.71875 -5.515625,11.15625 -12.359375 Q6.59375 -19.203125,6 -28.5625 L29.40625 -29.640625 Q30 -25.4375,31.796875 -22.5 Q33.59375 -19.5625,36.65625 -18.0625 Q39.71875 -16.5625,44.28125 -16.5625 Q47.875 -16.5625,50.390625 -17.34375 Q52.921875 -18.125,54.234375 -19.796875 Q55.5625 -21.484375,55.5625 -24 Q55.5625 -26.28125,54.421875 -28.015625 Q53.28125 -29.765625,49.984375 -31.140625 Q46.6875 -32.515625,40.203125 -33.84375 Q28.5625 -36.234375,21.359375 -39.40625 Q14.15625 -42.59375,10.859375 -47.640625 Q7.5625 -52.6875,7.5625 -60.484375 Q7.5625 -68.40625,11.640625 -74.40625 Q15.71875 -80.40625,23.390625 -83.765625 Q31.078125 -87.125,41.875 -87.125 Q53.28125 -87.125,60.953125 -83.28125 Q68.640625 -79.4375,72.890625 -72.71875 Q77.15625 -66,78 -57.125 L54.84375 -56.15625 Q54.59375 -60.125,52.90625 -62.875 Q51.234375 -65.640625,48.40625 -67.140625 Q45.59375 -68.640625,41.640625 -68.640625 Q36.59375 -68.640625,33.828125 -66.59375 Q31.078125 -64.5625,31.078125 -61.203125 Q31.078125 -58.5625,32.453125 -56.75 Q33.84375 -54.953125,37.015625 -53.75 Q40.203125 -52.5625,45.71875 -51.59375 Q58.3125 -49.4375,65.625 -45.71875 Q72.953125 -42,76.015625 -36.84375 Q79.078125 -31.6875,79.078125 -24.953125 Q79.078125 -16.6875,74.9375 -10.625 Q70.796875 -4.5625,62.9375 -1.3125 Q55.078125 1.921875,44.046875 1.921875 Z " fill="rgba(255,255,255,1.000)" transform="matrix(1,0,0,1,262,358)"/>
    <path d="M28.078125 1.4375 Q17.875 1.4375,12.296875 -4.984375 Q6.71875 -11.40625,6.71875 -23.046875 L6.71875 -64.796875 L30 -64.796875 L30 -28.3125 Q30 -22.078125,31.671875 -19.25 Q33.359375 -16.4375,36.953125 -16.4375 Q41.15625 -16.4375,43.3125 -19.5 Q45.484375 -22.5625,45.484375 -29.515625 L45.484375 -64.796875 L68.765625 -64.796875 L68.765625 -0 L47.875 -0 L47.046875 -20.40625 L49.6875 -20.15625 Q48.71875 -9.234375,43.3125 -3.890625 Q37.921875 1.4375,28.078125 1.4375 Z " fill="rgba(255,255,255,1.000)" transform="matrix(1,0,0,1,347.08002,358)"/>
    <path d="M6.71875 18 L6.71875 -64.796875 L29.40625 -64.796875 L29.875 -51.234375 L28.3125 -51.84375 Q30.71875 -58.796875,36 -62.515625 Q41.28125 -66.234375,48.484375 -66.234375 Q57.125 -66.234375,63.125 -61.90625 Q69.125 -57.59375,72.234375 -49.96875 Q75.359375 -42.359375,75.359375 -32.40625 Q75.359375 -22.5625,72.171875 -14.875 Q69 -7.203125,62.9375 -2.875 Q56.875 1.4375,48.234375 1.4375 Q43.6875 1.4375,39.71875 -0.296875 Q35.765625 -2.046875,32.8125 -5.28125 Q29.875 -8.515625,28.4375 -12.953125 L30 -13.4375 L30 18 Z M40.6875 -15.234375 Q45.71875 -15.234375,48.59375 -19.859375 Q51.484375 -24.484375,51.484375 -32.40625 Q51.484375 -40.3125,48.59375 -44.9375 Q45.71875 -49.5625,40.6875 -49.5625 Q37.3125 -49.5625,34.90625 -47.640625 Q32.515625 -45.71875,31.25 -41.875 Q30 -38.046875,30 -32.40625 Q30 -26.765625,31.25 -22.921875 Q32.515625 -19.078125,34.90625 -17.15625 Q37.3125 -15.234375,40.6875 -15.234375 Z " fill="rgba(255,255,255,1.000)" transform="matrix(1,0,0,1,422.56,358)"/>
    <path d="M38.515625 1.4375 Q28.078125 1.4375,20.28125 -2.75 Q12.484375 -6.953125,8.15625 -14.578125 Q3.84375 -22.203125,3.84375 -32.40625 Q3.84375 -42.59375,8.15625 -50.15625 Q12.484375 -57.71875,20.28125 -61.96875 Q28.078125 -66.234375,38.515625 -66.234375 Q48.953125 -66.234375,56.578125 -61.859375 Q64.203125 -57.484375,68.28125 -49.4375 Q72.359375 -41.40625,72.359375 -30.484375 L72.359375 -26.40625 L27.84375 -26.40625 Q28.078125 -20.515625,31.140625 -17.6875 Q34.203125 -14.875,39 -14.875 Q42.484375 -14.875,44.9375 -16.1875 Q47.40625 -17.515625,48.484375 -20.875 L71.515625 -19.6875 Q68.875 -9.234375,60 -3.890625 Q51.125 1.4375,38.515625 1.4375 Z M27.84375 -38.875 L49.078125 -38.875 Q48.953125 -44.515625,46.078125 -47.453125 Q43.203125 -50.40625,38.515625 -50.40625 Q34.078125 -50.40625,31.140625 -47.28125 Q28.203125 -44.15625,27.84375 -38.875 Z " fill="rgba(255,255,255,1.000)" transform="matrix(1,0,0,1,500.56,358)"/>
    <path d="M6.71875 -0 L6.71875 -64.796875 L29.28125 -64.796875 L30 -44.40625 L28.3125 -44.640625 Q30.125 -55.4375,34.078125 -60.109375 Q38.046875 -64.796875,45.234375 -64.796875 L50.765625 -64.796875 L50.765625 -46.3125 L45 -46.3125 Q39.84375 -46.3125,36.53125 -45.296875 Q33.234375 -44.28125,31.609375 -41.75 Q30 -39.234375,30 -34.6875 L30 -0 Z " fill="rgba(255,255,255,1.000)" transform="matrix(1,0,0,1,575.56,358)"/>
    <path d="" fill="rgba(255,255,255,1.000)" transform="matrix(1,0,0,1,630.16003,358)"/>
    <path d="M7.4375 -0 L7.4375 -85.203125 L43.203125 -85.203125 Q59.515625 -85.203125,68.453125 -79.625 Q77.40625 -74.046875,77.40625 -61.921875 Q77.40625 -56.765625,75.421875 -53.03125 Q73.4375 -49.3125,69.46875 -47.09375 Q65.515625 -44.875,59.765625 -44.15625 L59.765625 -43.921875 Q70.4375 -42.84375,75.71875 -37.625 Q81 -32.40625,81 -23.515625 Q81 -11.515625,72.109375 -5.75 Q63.234375 -0,46.796875 -0 Z M30.953125 -18 L45.234375 -18 Q50.40625 -18,53.9375 -20.09375 Q57.484375 -22.203125,57.484375 -26.765625 Q57.484375 -31.3125,54 -33.46875 Q50.515625 -35.640625,45.234375 -35.640625 L30.953125 -35.640625 Z M30.953125 -51 L42.234375 -51 Q47.28125 -51,50.578125 -52.96875 Q53.875 -54.953125,53.875 -59.046875 Q53.875 -63.359375,50.640625 -65.28125 Q47.40625 -67.203125,42.234375 -67.203125 L30.953125 -67.203125 Z " fill="rgba(255,255,255,1.000)" transform="matrix(1,0,0,1,655.83997,358)"/>
    <path d="M38.875 1.4375 Q28.3125 1.4375,20.453125 -2.75 Q12.59375 -6.953125,8.21875 -14.578125 Q3.84375 -22.203125,3.84375 -32.40625 Q3.84375 -42.59375,8.21875 -50.15625 Q12.59375 -57.71875,20.453125 -61.96875 Q28.3125 -66.234375,38.875 -66.234375 Q49.4375 -66.234375,57.296875 -61.96875 Q65.15625 -57.71875,69.53125 -50.15625 Q73.921875 -42.59375,73.921875 -32.40625 Q73.921875 -22.203125,69.53125 -14.578125 Q65.15625 -6.953125,57.296875 -2.75 Q49.4375 1.4375,38.875 1.4375 Z M38.875 -15.234375 Q44.28125 -15.234375,47.15625 -19.671875 Q50.046875 -24.125,50.046875 -32.40625 Q50.046875 -40.5625,47.15625 -45.0625 Q44.28125 -49.5625,38.875 -49.5625 Q33.484375 -49.5625,30.59375 -45.0625 Q27.71875 -40.5625,27.71875 -32.40625 Q27.71875 -24.125,30.59375 -19.671875 Q33.484375 -15.234375,38.875 -15.234375 Z " fill="rgba(255,255,255,1.000)" transform="matrix(1,0,0,1,741.76,358)"/>
    <path d="M26.40625 -0 Q17.046875 -0,11.875 -4.671875 Q6.71875 -9.359375,6.71875 -19.921875 L6.71875 -85.203125 L30 -85.203125 L30 -22.5625 Q30 -19.203125,31.5625 -17.8125 Q33.125 -16.4375,36 -16.4375 L39.484375 -16.4375 L39.484375 -0 Z " fill="rgba(255,255,255,1.000)" transform="matrix(1,0,0,1,818.92,358)"/>
    <path d="M29.875 1.4375 Q21.84375 1.4375,16.015625 -2.703125 Q10.203125 -6.84375,7.015625 -14.453125 Q3.84375 -22.078125,3.84375 -32.40625 Q3.84375 -42.71875,7.078125 -50.328125 Q10.3125 -57.953125,16.1875 -62.09375 Q22.078125 -66.234375,29.875 -66.234375 Q37.078125 -66.234375,41.875 -63.359375 Q46.6875 -60.484375,49.203125 -55.4375 L49.203125 -85.203125 L72.484375 -85.203125 L72.484375 -0 L49.796875 -0 L49.4375 -9.359375 Q46.796875 -4.203125,41.6875 -1.375 Q36.59375 1.4375,29.875 1.4375 Z M38.40625 -15.234375 Q41.875 -15.234375,44.28125 -17.03125 Q46.6875 -18.84375,47.9375 -22.625 Q49.203125 -26.40625,49.203125 -32.40625 Q49.203125 -38.40625,47.9375 -42.171875 Q46.6875 -45.953125,44.28125 -47.75 Q41.875 -49.5625,38.40625 -49.5625 Q33.484375 -49.5625,30.59375 -44.9375 Q27.71875 -40.3125,27.71875 -32.40625 Q27.71875 -24.71875,30.65625 -19.96875 Q33.59375 -15.234375,38.40625 -15.234375 Z " fill="rgba(255,255,255,1.000)" transform="matrix(1,0,0,1,859.36,358)"/>

</svg>
