<?xml version="1.0" encoding="UTF-8"?>
<svg xmlns="http://www.w3.org/2000/svg" viewBox="0 0 1200 630" width="1200" height="630">
<rect x="0" y="0" width="185" height="40" fill="rgba(240,240,240,1)"/>
<path d="M2.203125 -0 L2.203125 -17.046875 L4.265625 -17.046875 L4.265625 -0.953125 L3.234375 -2.015625 L12.796875 -2.015625 L12.796875 -0 Z " fill="rgba(0,0,0,1)" transform="matrix(1,0,0,1,0,28)"/>
<path d="M1.921875 -0 L1.921875 -12.71875 L3.9375 -12.71875 L3.9375 -0 Z M1.875 -14.71875 L1.875 -17.0625 L3.984375 -17.0625 L3.984375 -14.71875 Z " fill="rgba(0,0,0,1)" transform="matrix(1,0,0,1,12.72,28)"/>
<path d="M1.921875 -0 L1.921875 -12.71875 L3.765625 -12.71875 L3.84375 -9.484375 L3.59375 -9.703125 Q3.84375 -10.828125,4.4375 -11.546875 Q5.046875 -12.28125,5.890625 -12.640625 Q6.75 -13.015625,7.734375 -13.015625 Q9.1875 -13.015625,10.140625 -12.359375 Q11.09375 -11.71875,11.5625 -10.625 Q12.03125 -9.53125,12.03125 -8.1875 L12.03125 -0 L10.015625 -0 L10.015625 -7.609375 Q10.015625 -8.78125,9.734375 -9.578125 Q9.453125 -10.390625,8.84375 -10.8125 Q8.25 -11.234375,7.296875 -11.234375 Q5.828125 -11.234375,4.875 -10.3125 Q3.9375 -9.390625,3.9375 -7.609375 L3.9375 -0 Z " fill="rgba(0,0,0,1)" transform="matrix(1,0,0,1,18.720001,28)"/>
<path d="M6.890625 0.28125 Q5.09375 0.28125,3.78125 -0.53125 Q2.46875 -1.34375,1.765625 -2.84375 Q1.0625 -4.34375,1.0625 -6.359375 Q1.0625 -8.375,1.765625 -9.859375 Q2.46875 -11.359375,3.75 -12.1875 Q5.046875 -13.015625,6.796875 -13.015625 Q8.453125 -13.015625,9.71875 -12.234375 Q10.984375 -11.453125,11.6875 -9.953125 Q12.40625 -8.46875,12.40625 -6.34375 L12.40625 -5.734375 L3.171875 -5.734375 Q3.28125 -3.703125,4.25 -2.65625 Q5.234375 -1.625,6.890625 -1.625 Q8.140625 -1.625,8.9375 -2.21875 Q9.75 -2.8125,10.0625 -3.765625 L12.21875 -3.59375 Q11.71875 -1.890625,10.3125 -0.796875 Q8.90625 0.28125,6.890625 0.28125 Z M3.171875 -7.515625 L10.203125 -7.515625 Q10.0625 -9.359375,9.125 -10.21875 Q8.203125 -11.09375,6.796875 -11.09375 Q5.328125 -11.09375,4.375 -10.1875 Q3.4375 -9.28125,3.171875 -7.515625 Z " fill="rgba(0,0,0,1)" transform="matrix(1,0,0,1,32.376,28)"/>
<path d="" fill="rgba(0,0,0,1)" transform="matrix(1,0,0,1,45.84,28)"/>
<path d="M1.921875 -0 L1.921875 -17.046875 L3.9375 -17.046875 L3.9375 -9.90625 L3.703125 -9.953125 Q3.9375 -11.015625,4.515625 -11.6875 Q5.09375 -12.359375,5.921875 -12.6875 Q6.765625 -13.015625,7.78125 -13.015625 Q9.140625 -13.015625,10.09375 -12.390625 Q11.046875 -11.78125,11.53125 -10.6875 Q12.03125 -9.59375,12.03125 -8.1875 L12.03125 -0 L10.015625 -0 L10.015625 -7.609375 Q10.015625 -9.453125,9.34375 -10.34375 Q8.6875 -11.234375,7.34375 -11.234375 Q5.8125 -11.234375,4.875 -10.296875 Q3.9375 -9.359375,3.9375 -7.578125 L3.9375 -0 Z " fill="rgba(0,0,0,1)" transform="matrix(1,0,0,1,51.84,28)"/>
<path d="M6.890625 0.28125 Q5.09375 0.28125,3.78125 -0.53125 Q2.46875 -1.34375,1.765625 -2.84375 Q1.0625 -4.34375,1.0625 -6.359375 Q1.0625 -8.375,1.765625 -9.859375 Q2.46875 -11.359375,3.75 -12.1875 Q5.046875 -13.015625,6.796875 -13.015625 Q8.453125 -13.015625,9.71875 -12.234375 Q10.984375 -11.453125,11.6875 -9.953125 Q12.40625 -8.46875,12.40625 -6.34375 L12.40625 -5.734375 L3.171875 -5.734375 Q3.28125 -3.703125,4.25 -2.65625 Q5.234375 -1.625,6.890625 -1.625 Q8.140625 -1.625,8.9375 -2.21875 Q9.75 -2.8125,10.0625 -3.765625 L12.21875 -3.59375 Q11.71875 -1.890625,10.3125 -0.796875 Q8.90625 0.28125,6.890625 0.28125 Z M3.171875 -7.515625 L10.203125 -7.515625 Q10.0625 -9.359375,9.125 -10.21875 Q8.203125 -11.09375,6.796875 -11.09375 Q5.328125 -11.09375,4.375 -10.1875 Q3.4375 -9.28125,3.171875 -7.515625 Z " fill="rgba(0,0,0,1)" transform="matrix(1,0,0,1,65.496,28)"/>
<path d="M1.921875 -0 L1.921875 -12.71875 L3.9375 -12.71875 L3.9375 -0 Z M1.875 -14.71875 L1.875 -17.0625 L3.984375 -17.0625 L3.984375 -14.71875 Z " fill="rgba(0,0,0,1)" transform="matrix(1,0,0,1,78.72,28)"/>
<path d="M6.75 3.890625 Q5.375 3.890625,4.265625 3.421875 Q3.171875 2.96875,2.421875 2.125 Q1.6875 1.296875,1.421875 0.1875 L3.53125 0.046875 Q3.8125 0.9375,4.546875 1.453125 Q5.28125 1.96875,6.75 1.96875 Q8.46875 1.96875,9.390625 1.265625 Q10.3125 0.578125,10.3125 -0.8125 L10.3125 -2.875 Q9.859375 -1.875,8.84375 -1.265625 Q7.84375 -0.671875,6.59375 -0.671875 Q4.984375 -0.671875,3.71875 -1.453125 Q2.46875 -2.25,1.765625 -3.640625 Q1.0625 -5.046875,1.0625 -6.84375 Q1.0625 -8.65625,1.75 -10.03125 Q2.453125 -11.421875,3.6875 -12.21875 Q4.921875 -13.015625,6.5 -13.015625 Q7.84375 -13.015625,8.90625 -12.390625 Q9.984375 -11.765625,10.421875 -10.703125 L10.421875 -12.71875 L12.34375 -12.71875 L12.34375 -0.859375 Q12.34375 0.625,11.65625 1.6875 Q10.984375 2.765625,9.734375 3.328125 Q8.5 3.890625,6.75 3.890625 Z M6.703125 -2.59375 Q8.328125 -2.59375,9.3125 -3.734375 Q10.296875 -4.875,10.3125 -6.84375 Q10.34375 -8.15625,9.890625 -9.109375 Q9.453125 -10.0625,8.625 -10.578125 Q7.796875 -11.09375,6.703125 -11.09375 Q5.015625 -11.09375,4.09375 -9.953125 Q3.171875 -8.8125,3.171875 -6.84375 Q3.171875 -4.875,4.109375 -3.734375 Q5.0625 -2.59375,6.703125 -2.59375 Z " fill="rgba(0,0,0,1)" transform="matrix(1,0,0,1,84.336,28)"/>
<path d="M1.921875 -0 L1.921875 -17.046875 L3.9375 -17.046875 L3.9375 -9.90625 L3.703125 -9.953125 Q3.9375 -11.015625,4.515625 -11.6875 Q5.09375 -12.359375,5.921875 -12.6875 Q6.765625 -13.015625,7.78125 -13.015625 Q9.140625 -13.015625,10.09375 -12.390625 Q11.046875 -11.78125,11.53125 -10.6875 Q12.03125 -9.59375,12.03125 -8.1875 L12.03125 -0 L10.015625 -0 L10.015625 -7.609375 Q10.015625 -9.453125,9.34375 -10.34375 Q8.6875 -11.234375,7.34375 -11.234375 Q5.8125 -11.234375,4.875 -10.296875 Q3.9375 -9.359375,3.9375 -7.578125 L3.9375 -0 Z " fill="rgba(0,0,0,1)" transform="matrix(1,0,0,1,98.231995,28)"/>
<path d="M6.578125 -0 Q4.84375 -0,4.015625 -0.78125 Q3.1875 -1.578125,3.1875 -3.265625 L3.1875 -15.703125 L5.203125 -15.703125 L5.203125 -3.3125 Q5.203125 -2.453125,5.578125 -2.109375 Q5.96875 -1.78125,6.765625 -1.78125 L8.59375 -1.78125 L8.59375 -0 Z M1.3125 -10.9375 L1.3125 -12.71875 L8.59375 -12.71875 L8.59375 -10.9375 Z " fill="rgba(0,0,0,1)" transform="matrix(1,0,0,1,111.215996,28)"/>
<path d="" fill="rgba(0,0,0,1)" transform="matrix(1,0,0,1,120.62399,28)"/>
<path d="M9.390625 -0 L9.390625 -3.703125 L0.71875 -3.703125 L0.71875 -5.5625 L9.234375 -17.046875 L11.453125 -17.046875 L11.453125 -5.71875 L13.5625 -5.71875 L13.5625 -3.703125 L11.453125 -3.703125 L11.453125 -0 Z M3.21875 -5.71875 L9.390625 -5.71875 L9.390625 -13.875 Z " fill="rgba(0,0,0,1)" transform="matrix(1,0,0,1,126.62399,28)"/>
<path d="M7.9375 0.390625 Q5.875 0.390625,4.359375 -0.6875 Q2.859375 -1.78125,2.03125 -3.765625 Q1.203125 -5.765625,1.203125 -8.5 Q1.203125 -11.234375,2.03125 -13.234375 Q2.859375 -15.234375,4.359375 -16.328125 Q5.875 -17.421875,7.9375 -17.421875 Q10.03125 -17.421875,11.546875 -16.328125 Q13.0625 -15.234375,13.890625 -13.234375 Q14.71875 -11.25,14.71875 -8.5 Q14.71875 -5.765625,13.890625 -3.765625 Q13.0625 -1.78125,11.546875 -0.6875 Q10.03125 0.390625,7.9375 0.390625 Z M7.9375 -1.625 Q10.15625 -1.625,11.34375 -3.40625 Q12.546875 -5.203125,12.546875 -8.5 Q12.546875 -10.703125,12 -12.25 Q11.46875 -13.796875,10.453125 -14.59375 Q9.4375 -15.40625,7.9375 -15.40625 Q6.484375 -15.40625,5.453125 -14.59375 Q4.4375 -13.796875,3.890625 -12.25 Q3.359375 -10.703125,3.359375 -8.5 Q3.359375 -5.203125,4.5625 -3.40625 Q5.765625 -1.625,7.9375 -1.625 Z " fill="rgba(0,0,0,1)" transform="matrix(1,0,0,1,141.144,28)"/>
<path d="M1.921875 3.59375 L1.921875 -12.71875 L3.796875 -12.71875 L3.84375 -9.984375 L3.546875 -10.125 Q4.03125 -11.546875,5.140625 -12.28125 Q6.265625 -13.015625,7.734375 -13.015625 Q9.625 -13.015625,10.828125 -12.078125 Q12.046875 -11.140625,12.625 -9.625 Q13.21875 -8.109375,13.21875 -6.359375 Q13.21875 -4.609375,12.625 -3.09375 Q12.046875 -1.578125,10.828125 -0.640625 Q9.625 0.28125,7.734375 0.28125 Q6.75 0.28125,5.890625 -0.046875 Q5.046875 -0.390625,4.453125 -0.984375 Q3.859375 -1.578125,3.640625 -2.40625 L3.9375 -2.734375 L3.9375 3.59375 Z M7.53125 -1.625 Q9.1875 -1.625,10.140625 -2.875 Q11.109375 -4.125,11.109375 -6.359375 Q11.109375 -8.59375,10.140625 -9.84375 Q9.1875 -11.09375,7.53125 -11.09375 Q6.4375 -11.09375,5.625 -10.5625 Q4.828125 -10.03125,4.375 -8.96875 Q3.9375 -7.921875,3.9375 -6.359375 Q3.9375 -4.796875,4.359375 -3.734375 Q4.796875 -2.6875,5.609375 -2.15625 Q6.4375 -1.625,7.53125 -1.625 Z " fill="rgba(0,0,0,1)" transform="matrix(1,0,0,1,157.056,28)"/>
<path d="M1.125 -0 L5.8125 -6.53125 L1.375 -12.71875 L3.71875 -12.71875 L7.0625 -7.921875 L10.296875 -12.71875 L12.703125 -12.71875 L8.296875 -6.484375 L12.90625 -0 L10.5625 -0 L7.0625 -5.140625 L3.53125 -0 Z " fill="rgba(0,0,0,1)" transform="matrix(1,0,0,1,170.136,28)"/>
</svg>
