<?xml version="1.0" encoding="UTF-8"?>
<svg xmlns="http://www.w3.org/2000/svg" viewBox="0 0 1200 630" width="1200" height="630">
    <rect x="0" y="0" width="1200" height="116" fill="rgba(240,240,240,1.000)"/>
    <path d="M18.765625 -0 L18.765625 -7.390625 L1.4375 -7.390625 L1.4375 -11.140625 L18.484375 -34.078125 L22.890625 -34.078125 L22.890625 -11.421875 L27.125 -11.421875 L27.125 -7.390625 L22.890625 -7.390625 L22.890625 -0 Z M6.4375 -11.421875 L18.765625 -11.421875 L18.765625 -27.75 Z " fill="rgba(0,0,0,1.000)" transform="matrix(1,0,0,1,0,45)"/>
    <path d="M15.890625 0.765625 Q11.765625 0.765625,8.734375 -1.390625 Q5.71875 -3.546875,4.0625 -7.53125 Q2.40625 -11.515625,2.40625 -16.984375 Q2.40625 -22.46875,4.0625 -26.46875 Q5.71875 -30.484375,8.734375 -32.65625 Q11.765625 -34.84375,15.890625 -34.84375 Q20.0625 -34.84375,23.078125 -32.65625 Q26.109375 -30.484375,27.765625 -26.5 Q29.421875 -22.515625,29.421875 -16.984375 Q29.421875 -11.515625,27.765625 -7.53125 Q26.109375 -3.546875,23.078125 -1.390625 Q20.0625 0.765625,15.890625 0.765625 Z M15.890625 -3.265625 Q20.296875 -3.265625,22.703125 -6.84375 Q25.109375 -10.421875,25.109375 -16.984375 Q25.109375 -21.40625,24.015625 -24.5 Q22.9375 -27.59375,20.890625 -29.203125 Q18.859375 -30.8125,15.890625 -30.8125 Q12.953125 -30.8125,10.90625 -29.203125 Q8.875 -27.59375,7.796875 -24.5 Q6.71875 -21.40625,6.71875 -16.984375 Q6.71875 -10.421875,9.109375 -6.84375 Q11.515625 -3.265625,15.890625 -3.265625 Z " fill="rgba(0,0,0,1.000)" transform="matrix(1,0,0,1,29.04,45)"/>
    <path d="M15.890625 0.765625 Q11.765625 0.765625,8.734375 -1.390625 Q5.71875 -3.546875,4.0625 -7.53125 Q2.40625 -11.515625,2.40625 -16.984375 Q2.40625 -22.46875,4.0625 -26.46875 Q5.71875 -30.484375,8.734375 -32.65625 Q11.765625 -34.84375,15.890625 -34.84375 Q20.0625 -34.84375,23.078125 -32.65625 Q26.109375 -30.484375,27.765625 -26.5 Q29.421875 -22.515625,29.421875 -16.984375 Q29.421875 -11.515625,27.765625 -7.53125 Q26.109375 -3.546875,23.078125 -1.390625 Q20.0625 0.765625,15.890625 0.765625 Z M15.890625 -3.265625 Q20.296875 -3.265625,22.703125 -6.84375 Q25.109375 -10.421875,25.109375 -16.984375 Q25.109375 -21.40625,24.015625 -24.5 Q22.9375 -27.59375,20.890625 -29.203125 Q18.859375 -30.8125,15.890625 -30.8125 Q12.953125 -30.8125,10.90625 -29.203125 Q8.875 -27.59375,7.796875 -24.5 Q6.71875 -21.40625,6.71875 -16.984375 Q6.71875 -10.421875,9.109375 -6.84375 Q11.515625 -3.265625,15.890625 -3.265625 Z " fill="rgba(0,0,0,1.000)" transform="matrix(1,0,0,1,61.344,45)"/>
    <path d="M18.65625 -0 L18.65625 -7.25 L1.390625 -7.25 L1.390625 -11.328125 L18.1875 -34.078125 L23.3125 -34.078125 L23.3125 -11.625 L27.5 -11.625 L27.5 -7.25 L23.3125 -7.25 L23.3125 -0 Z M6.84375 -11.625 L18.65625 -11.625 L18.65625 -27.296875 Z " fill="rgba(0,0,0,1.000)" transform="matrix(1,0,0,1,118,45)"/>
    <path d="M15.15625 0.765625 Q11.453125 0.765625,8.796875 -0.4375 Q6.140625 -1.65625,4.609375 -3.828125 Q3.09375 -6.015625,2.84375 -8.890625 L7.6875 -9.1875 Q8.0625 -6.421875,10.0625 -5.015625 Q12.0625 -3.625,15.15625 -3.625 Q18.625 -3.625,20.640625 -5.578125 Q22.671875 -7.546875,22.671875 -11.015625 Q22.671875 -13.3125,21.765625 -15 Q20.859375 -16.6875,19.15625 -17.609375 Q17.453125 -18.53125,15.0625 -18.53125 Q12.765625 -18.53125,10.90625 -17.53125 Q9.0625 -16.546875,8.28125 -14.796875 L3.390625 -14.796875 L5.671875 -34.078125 L25.203125 -34.078125 L25.203125 -29.703125 L9.859375 -29.703125 L8.375 -17.5625 L7.59375 -18.3125 Q8.359375 -19.765625,9.625 -20.734375 Q10.890625 -21.703125,12.546875 -22.203125 Q14.203125 -22.703125,16.046875 -22.703125 Q19.484375 -22.703125,22.0625 -21.1875 Q24.65625 -19.6875,26.078125 -17.03125 Q27.515625 -14.390625,27.515625 -11.015625 Q27.515625 -7.5625,25.953125 -4.875 Q24.40625 -2.203125,21.609375 -0.71875 Q18.828125 0.765625,15.15625 0.765625 Z " fill="rgba(0,0,0,1.000)" transform="matrix(1,0,0,1,147.856,45)"/>
    <path d="M16.015625 0.765625 Q11.828125 0.765625,8.765625 -1.390625 Q5.703125 -3.546875,4.03125 -7.53125 Q2.359375 -11.515625,2.359375 -16.984375 Q2.359375 -22.46875,4.03125 -26.46875 Q5.703125 -30.484375,8.765625 -32.65625 Q11.828125 -34.84375,16.015625 -34.84375 Q20.234375 -34.84375,23.296875 -32.65625 Q26.359375 -30.484375,28.03125 -26.5 Q29.71875 -22.515625,29.71875 -16.984375 Q29.71875 -11.515625,28.03125 -7.53125 Q26.359375 -3.546875,23.296875 -1.390625 Q20.234375 0.765625,16.015625 0.765625 Z M16.015625 -3.609375 Q20.25 -3.609375,22.546875 -7.078125 Q24.859375 -10.546875,24.859375 -16.984375 Q24.859375 -21.3125,23.828125 -24.328125 Q22.796875 -27.34375,20.828125 -28.90625 Q18.875 -30.46875,16.015625 -30.46875 Q13.203125 -30.46875,11.234375 -28.90625 Q9.28125 -27.34375,8.234375 -24.328125 Q7.203125 -21.3125,7.203125 -16.984375 Q7.203125 -10.546875,9.5 -7.078125 Q11.8125 -3.609375,16.015625 -3.609375 Z " fill="rgba(0,0,0,1.000)" transform="matrix(1,0,0,1,177.328,45)"/>
    <path d="M15.328125 0.765625 Q11.53125 0.765625,8.828125 -0.453125 Q6.125 -1.671875,4.59375 -3.875 Q3.0625 -6.078125,2.8125 -8.984375 L8.15625 -9.296875 Q8.546875 -6.640625,10.453125 -5.296875 Q12.359375 -3.96875,15.328125 -3.96875 Q18.65625 -3.96875,20.59375 -5.84375 Q22.546875 -7.734375,22.546875 -11.078125 Q22.546875 -13.28125,21.671875 -14.890625 Q20.796875 -16.515625,19.171875 -17.40625 Q17.546875 -18.296875,15.25 -18.296875 Q12.984375 -18.296875,11.21875 -17.3125 Q9.453125 -16.34375,8.703125 -14.671875 L3.328125 -14.671875 L5.609375 -34.078125 L25.609375 -34.078125 L25.609375 -29.34375 L10.21875 -29.34375 L8.78125 -17.640625 L7.984375 -18.390625 Q8.765625 -19.796875,10.015625 -20.75 Q11.28125 -21.71875,12.921875 -22.21875 Q14.578125 -22.71875,16.453125 -22.71875 Q19.90625 -22.71875,22.484375 -21.203125 Q25.0625 -19.703125,26.484375 -17.0625 Q27.921875 -14.4375,27.921875 -11.078125 Q27.921875 -7.578125,26.34375 -4.890625 Q24.765625 -2.203125,21.921875 -0.71875 Q19.078125 0.765625,15.328125 0.765625 Z " fill="rgba(0,0,0,1.000)" transform="matrix(1,0,0,1,234,45)"/>
    <path d="M16.140625 0.765625 Q11.890625 0.765625,8.78125 -1.390625 Q5.6875 -3.546875,3.984375 -7.53125 Q2.296875 -11.515625,2.296875 -16.984375 Q2.296875 -22.46875,3.984375 -26.46875 Q5.6875 -30.484375,8.78125 -32.65625 Q11.890625 -34.84375,16.140625 -34.84375 Q20.421875 -34.84375,23.515625 -32.65625 Q26.609375 -30.484375,28.296875 -26.5 Q30 -22.515625,30 -16.984375 Q30 -11.515625,28.3125 -7.53125 Q26.625 -3.546875,23.515625 -1.390625 Q20.421875 0.765625,16.140625 0.765625 Z M16.140625 -3.96875 Q20.203125 -3.96875,22.40625 -7.328125 Q24.609375 -10.6875,24.609375 -16.984375 Q24.609375 -21.21875,23.625 -24.15625 Q22.640625 -27.09375,20.765625 -28.59375 Q18.890625 -30.109375,16.140625 -30.109375 Q13.4375 -30.109375,11.546875 -28.59375 Q9.671875 -27.09375,8.671875 -24.15625 Q7.6875 -21.21875,7.6875 -16.984375 Q7.6875 -10.6875,9.890625 -7.328125 Q12.09375 -3.96875,16.140625 -3.96875 Z " fill="rgba(0,0,0,1.000)" transform="matrix(1,0,0,1,263.808,45)"/>
    <path d="M16.140625 0.765625 Q11.890625 0.765625,8.78125 -1.390625 Q5.6875 -3.546875,3.984375 -7.53125 Q2.296875 -11.515625,2.296875 -16.984375 Q2.296875 -22.46875,3.984375 -26.46875 Q5.6875 -30.484375,8.78125 -32.65625 Q11.890625 -34.84375,16.140625 -34.84375 Q20.421875 -34.84375,23.515625 -32.65625 Q26.609375 -30.484375,28.296875 -26.5 Q30 -22.515625,30 -16.984375 Q30 -11.515625,28.3125 -7.53125 Q26.625 -3.546875,23.515625 -1.390625 Q20.421875 0.765625,16.140625 0.765625 Z M16.140625 -3.96875 Q20.203125 -3.96875,22.40625 -7.328125 Q24.609375 -10.6875,24.609375 -16.984375 Q24.609375 -21.21875,23.625 -24.15625 Q22.640625 -27.09375,20.765625 -28.59375 Q18.890625 -30.109375,16.140625 -30.109375 Q13.4375 -30.109375,11.546875 -28.59375 Q9.671875 -27.09375,8.671875 -24.15625 Q7.6875 -21.21875,7.6875 -16.984375 Q7.6875 -10.6875,9.890625 -7.328125 Q12.09375 -3.96875,16.140625 -3.96875 Z " fill="rgba(0,0,0,1.000)" transform="matrix(1,0,0,1,296.592,45)"/>
    <path d="M15.5 0.765625 Q11.609375 0.765625,8.859375 -0.453125 Q6.109375 -1.6875,4.5625 -3.90625 Q3.03125 -6.140625,2.78125 -9.09375 L8.640625 -9.40625 Q9.03125 -6.875,10.84375 -5.59375 Q12.65625 -4.328125,15.5 -4.328125 Q18.703125 -4.328125,20.546875 -6.125 Q22.40625 -7.9375,22.40625 -11.140625 Q22.40625 -13.25,21.5625 -14.796875 Q20.734375 -16.34375,19.171875 -17.203125 Q17.625 -18.0625,15.421875 -18.0625 Q13.21875 -18.0625,11.515625 -17.09375 Q9.828125 -16.140625,9.109375 -14.546875 L3.25 -14.546875 L5.5625 -34.078125 L26 -34.078125 L26 -29 L10.5625 -29 L9.171875 -17.734375 L8.375 -18.46875 Q9.15625 -19.84375,10.40625 -20.78125 Q11.671875 -21.71875,13.3125 -22.21875 Q14.96875 -22.71875,16.859375 -22.71875 Q20.328125 -22.71875,22.90625 -21.21875 Q25.484375 -19.71875,26.890625 -17.09375 Q28.3125 -14.484375,28.3125 -11.140625 Q28.3125 -7.59375,26.703125 -4.890625 Q25.109375 -2.1875,22.21875 -0.703125 Q19.34375 0.765625,15.5 0.765625 Z " fill="rgba(0,0,0,1.000)" transform="matrix(1,0,0,1,353,45)"/>
    <path d="M15.5 0.765625 Q11.609375 0.765625,8.859375 -0.453125 Q6.109375 -1.6875,4.5625 -3.90625 Q3.03125 -6.140625,2.78125 -9.09375 L8.640625 -9.40625 Q9.03125 -6.875,10.84375 -5.59375 Q12.65625 -4.328125,15.5 -4.328125 Q18.703125 -4.328125,20.546875 -6.125 Q22.40625 -7.9375,22.40625 -11.140625 Q22.40625 -13.25,21.5625 -14.796875 Q20.734375 -16.34375,19.171875 -17.203125 Q17.625 -18.0625,15.421875 -18.0625 Q13.21875 -18.0625,11.515625 -17.09375 Q9.828125 -16.140625,9.109375 -14.546875 L3.25 -14.546875 L5.5625 -34.078125 L26 -34.078125 L26 -29 L10.5625 -29 L9.171875 -17.734375 L8.375 -18.46875 Q9.15625 -19.84375,10.40625 -20.78125 Q11.671875 -21.71875,13.3125 -22.21875 Q14.96875 -22.71875,16.859375 -22.71875 Q20.328125 -22.71875,22.90625 -21.21875 Q25.484375 -19.71875,26.890625 -17.09375 Q28.3125 -14.484375,28.3125 -11.140625 Q28.3125 -7.59375,26.703125 -4.890625 Q25.109375 -2.1875,22.21875 -0.703125 Q19.34375 0.765625,15.5 0.765625 Z " fill="rgba(0,0,0,1.000)" transform="matrix(1,0,0,1,384.104,45)"/>
    <path d="M16.265625 0.765625 Q11.96875 0.765625,8.8125 -1.375 Q5.671875 -3.53125,3.953125 -7.515625 Q2.25 -11.5,2.25 -16.984375 Q2.25 -22.484375,3.96875 -26.484375 Q5.6875 -30.5,8.828125 -32.671875 Q11.96875 -34.84375,16.265625 -34.84375 Q20.59375 -34.84375,23.71875 -32.671875 Q26.859375 -30.5,28.5625 -26.5 Q30.28125 -22.515625,30.28125 -16.984375 Q30.28125 -11.515625,28.578125 -7.53125 Q26.875 -3.546875,23.734375 -1.390625 Q20.59375 0.765625,16.265625 0.765625 Z M16.265625 -4.3125 Q20.15625 -4.3125,22.265625 -7.5625 Q24.375 -10.8125,24.375 -16.984375 Q24.375 -21.140625,23.421875 -23.984375 Q22.484375 -26.84375,20.6875 -28.296875 Q18.890625 -29.765625,16.265625 -29.765625 Q13.671875 -29.765625,11.859375 -28.296875 Q10.0625 -26.84375,9.109375 -23.984375 Q8.171875 -21.140625,8.171875 -16.984375 Q8.171875 -10.8125,10.28125 -7.5625 Q12.390625 -4.3125,16.265625 -4.3125 Z " fill="rgba(0,0,0,1.000)" transform="matrix(1,0,0,1,414.248,45)"/>
    <path d="M15.09375 0.765625 Q10.890625 0.765625,8.015625 -1.0625 Q5.140625 -2.890625,3.671875 -6.375 Q2.203125 -9.875,2.203125 -14.796875 Q2.203125 -19.0625,3.015625 -22.703125 Q3.828125 -26.359375,5.515625 -29.0625 Q7.21875 -31.78125,9.890625 -33.3125 Q12.5625 -34.84375,16.296875 -34.84375 Q21.125 -34.84375,23.890625 -32.5 Q26.671875 -30.15625,27.640625 -26.203125 L21.71875 -25.75 Q21.140625 -27.5,19.921875 -28.484375 Q18.703125 -29.484375,16.28125 -29.484375 Q12.640625 -29.484375,10.546875 -26.34375 Q8.453125 -23.21875,8.28125 -16.703125 L7.3125 -16.890625 Q7.828125 -18.390625,9.03125 -19.671875 Q10.25 -20.96875,12.09375 -21.765625 Q13.9375 -22.5625,16.359375 -22.5625 Q19.796875 -22.5625,22.375 -21.15625 Q24.953125 -19.75,26.375 -17.203125 Q27.8125 -14.65625,27.8125 -11.25 Q27.8125 -7.46875,26.1875 -4.765625 Q24.578125 -2.078125,21.71875 -0.65625 Q18.875 0.765625,15.09375 0.765625 Z M15.09375 -4.453125 Q17.953125 -4.453125,19.734375 -6.265625 Q21.53125 -8.078125,21.53125 -11.21875 Q21.53125 -13.203125,20.75 -14.671875 Q19.984375 -16.15625,18.59375 -16.96875 Q17.21875 -17.78125,15.359375 -17.78125 Q13.40625 -17.78125,11.875 -16.96875 Q10.34375 -16.15625,9.46875 -14.671875 Q8.609375 -13.203125,8.609375 -11.21875 Q8.609375 -9.21875,9.390625 -7.6875 Q10.1875 -6.171875,11.65625 -5.3125 Q13.125 -4.453125,15.09375 -4.453125 Z " fill="rgba(0,0,0,1.000)" transform="matrix(1,0,0,1,471,45)"/>
    <path d="M16.390625 0.765625 Q12.03125 0.765625,8.84375 -1.375 Q5.65625 -3.53125,3.921875 -7.515625 Q2.203125 -11.5,2.203125 -16.984375 Q2.203125 -22.484375,3.9375 -26.484375 Q5.671875 -30.5,8.84375 -32.671875 Q12.03125 -34.84375,16.390625 -34.84375 Q20.78125 -34.84375,23.9375 -32.671875 Q27.109375 -30.5,28.84375 -26.5 Q30.578125 -22.515625,30.578125 -16.984375 Q30.578125 -11.515625,28.84375 -7.53125 Q27.125 -3.546875,23.953125 -1.390625 Q20.78125 0.765625,16.390625 0.765625 Z M16.390625 -4.671875 Q20.109375 -4.671875,22.109375 -7.8125 Q24.125 -10.953125,24.125 -16.984375 Q24.125 -21.046875,23.21875 -23.8125 Q22.328125 -26.578125,20.609375 -28 Q18.90625 -29.421875,16.390625 -29.421875 Q13.90625 -29.421875,12.171875 -28 Q10.453125 -26.578125,9.546875 -23.8125 Q8.65625 -21.046875,8.65625 -16.984375 Q8.65625 -10.953125,10.65625 -7.8125 Q12.671875 -4.671875,16.390625 -4.671875 Z " fill="rgba(0,0,0,1.000)" transform="matrix(1,0,0,1,500.52,45)"/>
    <path d="M16.390625 0.765625 Q12.03125 0.765625,8.84375 -1.375 Q5.65625 -3.53125,3.921875 -7.515625 Q2.203125 -11.5,2.203125 -16.984375 Q2.203125 -22.484375,3.9375 -26.484375 Q5.671875 -30.5,8.84375 -32.671875 Q12.03125 -34.84375,16.390625 -34.84375 Q20.78125 -34.84375,23.9375 -32.671875 Q27.109375 -30.5,28.84375 -26.5 Q30.578125 -22.515625,30.578125 -16.984375 Q30.578125 -11.515625,28.84375 -7.53125 Q27.125 -3.546875,23.953125 -1.390625 Q20.78125 0.765625,16.390625 0.765625 Z M16.390625 -4.671875 Q20.109375 -4.671875,22.109375 -7.8125 Q24.125 -10.953125,24.125 -16.984375 Q24.125 -21.046875,23.21875 -23.8125 Q22.328125 -26.578125,20.609375 -28 Q18.90625 -29.421875,16.390625 -29.421875 Q13.90625 -29.421875,12.171875 -28 Q10.453125 -26.578125,9.546875 -23.8125 Q8.65625 -21.046875,8.65625 -16.984375 Q8.65625 -10.953125,10.65625 -7.8125 Q12.671875 -4.671875,16.390625 -4.671875 Z " fill="rgba(0,0,0,1.000)" transform="matrix(1,0,0,1,533.784,45)"/>
    <path d="M15.234375 0.765625 Q10.9375 0.765625,8.015625 -1.078125 Q5.109375 -2.921875,3.625 -6.4375 Q2.15625 -9.953125,2.15625 -14.90625 Q2.15625 -19.171875,3 -22.8125 Q3.84375 -26.453125,5.5625 -29.140625 Q7.296875 -31.828125,10 -33.328125 Q12.703125 -34.84375,16.421875 -34.84375 Q21.3125 -34.84375,24.15625 -32.46875 Q27 -30.09375,27.953125 -26.0625 L21.625 -25.578125 Q21.046875 -27.265625,19.875 -28.203125 Q18.71875 -29.15625,16.390625 -29.15625 Q12.890625 -29.15625,10.875 -26.125 Q8.875 -23.109375,8.6875 -16.796875 L7.703125 -16.984375 Q8.203125 -18.4375,9.390625 -19.671875 Q10.578125 -20.921875,12.390625 -21.6875 Q14.203125 -22.46875,16.625 -22.46875 Q20.09375 -22.46875,22.671875 -21.078125 Q25.265625 -19.6875,26.6875 -17.140625 Q28.125 -14.609375,28.125 -11.234375 Q28.125 -7.4375,26.484375 -4.75 Q24.859375 -2.0625,21.96875 -0.640625 Q19.078125 0.765625,15.234375 0.765625 Z M15.21875 -4.75 Q17.953125 -4.75,19.65625 -6.46875 Q21.359375 -8.203125,21.359375 -11.1875 Q21.359375 -13.078125,20.609375 -14.484375 Q19.875 -15.90625,18.546875 -16.6875 Q17.234375 -17.46875,15.453125 -17.46875 Q13.578125 -17.46875,12.125 -16.6875 Q10.6875 -15.90625,9.859375 -14.484375 Q9.03125 -13.078125,9.03125 -11.1875 Q9.03125 -9.28125,9.78125 -7.828125 Q10.53125 -6.390625,11.9375 -5.5625 Q13.34375 -4.75,15.21875 -4.75 Z " fill="rgba(0,0,0,1.000)" transform="matrix(1,0,0,1,591,45)"/>
    <path d="M15.84375 0.765625 Q11.765625 0.765625,8.921875 -0.484375 Q6.09375 -1.734375,4.53125 -4 Q2.96875 -6.265625,2.71875 -9.28125 L9.59375 -9.625 Q10.015625 -7.3125,11.625 -6.171875 Q13.25 -5.046875,15.84375 -5.046875 Q18.796875 -5.046875,20.46875 -6.6875 Q22.15625 -8.328125,22.15625 -11.28125 Q22.15625 -13.171875,21.375 -14.59375 Q20.609375 -16.015625,19.1875 -16.796875 Q17.78125 -17.59375,15.796875 -17.59375 Q13.6875 -17.59375,12.125 -16.671875 Q10.578125 -15.75,9.9375 -14.28125 L3.125 -14.28125 L5.46875 -34.078125 L26.78125 -34.078125 L26.78125 -28.296875 L11.28125 -28.296875 L9.984375 -17.90625 L9.171875 -18.625 Q9.953125 -19.921875,11.1875 -20.828125 Q12.4375 -21.75,14.078125 -22.234375 Q15.71875 -22.734375,17.671875 -22.734375 Q21.171875 -22.734375,23.734375 -21.234375 Q26.296875 -19.75,27.703125 -17.15625 Q29.109375 -14.5625,29.109375 -11.28125 Q29.109375 -7.625,27.46875 -4.90625 Q25.828125 -2.1875,22.828125 -0.703125 Q19.84375 0.765625,15.84375 0.765625 Z " fill="rgba(0,0,0,1.000)" transform="matrix(1,0,0,1,620.808,45)"/>
    <path d="M16.515625 0.765625 Q12.09375 0.765625,8.859375 -1.375 Q5.640625 -3.53125,3.890625 -7.515625 Q2.15625 -11.5,2.15625 -16.984375 Q2.15625 -22.484375,3.90625 -26.484375 Q5.671875 -30.5,8.875 -32.671875 Q12.09375 -34.84375,16.515625 -34.84375 Q20.953125 -34.84375,24.15625 -32.671875 Q27.359375 -30.5,29.109375 -26.5 Q30.859375 -22.515625,30.859375 -16.984375 Q30.859375 -11.515625,29.125 -7.53125 Q27.390625 -3.546875,24.171875 -1.390625 Q20.953125 0.765625,16.515625 0.765625 Z M16.515625 -5.015625 Q20.0625 -5.015625,21.96875 -8.046875 Q23.875 -11.09375,23.875 -16.984375 Q23.875 -20.953125,23.015625 -23.640625 Q22.171875 -26.328125,20.53125 -27.6875 Q18.90625 -29.0625,16.515625 -29.0625 Q14.140625 -29.0625,12.484375 -27.6875 Q10.84375 -26.328125,9.984375 -23.640625 Q9.140625 -20.953125,9.140625 -16.984375 Q9.140625 -11.09375,11.046875 -8.046875 Q12.953125 -5.015625,16.515625 -5.015625 Z " fill="rgba(0,0,0,1.000)" transform="matrix(1,0,0,1,651.72,45)"/>
    <path d="M7.875 -0 Q7.875 -5.28125,9.21875 -10.21875 Q10.5625 -15.15625,13 -19.625 Q15.4375 -24.09375,18.703125 -27.953125 L0.953125 -27.953125 L0.953125 -34.078125 L26.125 -34.078125 L26.125 -28.34375 Q22.546875 -24.3125,20.109375 -20.078125 Q17.6875 -15.859375,16.484375 -10.953125 Q15.28125 -6.046875,15.28125 -0 Z " fill="rgba(0,0,0,1.000)" transform="matrix(1,0,0,1,709,45)"/>
    <path d="M16.640625 0.765625 Q12.15625 0.765625,8.890625 -1.375 Q5.625 -3.53125,3.859375 -7.5 Q2.109375 -11.484375,2.109375 -16.984375 Q2.109375 -22.5,3.875 -26.5 Q5.65625 -30.515625,8.90625 -32.671875 Q12.15625 -34.84375,16.640625 -34.84375 Q21.125 -34.84375,24.359375 -32.671875 Q27.609375 -30.515625,29.375 -26.515625 Q31.15625 -22.515625,31.15625 -16.984375 Q31.15625 -11.515625,29.390625 -7.53125 Q27.640625 -3.546875,24.375 -1.390625 Q21.125 0.765625,16.640625 0.765625 Z M16.640625 -5.359375 Q20.015625 -5.359375,21.828125 -8.28125 Q23.640625 -11.21875,23.640625 -16.984375 Q23.640625 -20.859375,22.828125 -23.46875 Q22.015625 -26.078125,20.46875 -27.390625 Q18.921875 -28.71875,16.640625 -28.71875 Q14.375 -28.71875,12.796875 -27.390625 Q11.234375 -26.078125,10.421875 -23.46875 Q9.625 -20.859375,9.625 -16.984375 Q9.625 -11.21875,11.4375 -8.28125 Q13.25 -5.359375,16.640625 -5.359375 Z " fill="rgba(0,0,0,1.000)" transform="matrix(1,0,0,1,735.112,45)"/>
    <path d="M16.640625 0.765625 Q12.15625 0.765625,8.890625 -1.375 Q5.625 -3.53125,3.859375 -7.5 Q2.109375 -11.484375,2.109375 -16.984375 Q2.109375 -22.5,3.875 -26.5 Q5.65625 -30.515625,8.90625 -32.671875 Q12.15625 -34.84375,16.640625 -34.84375 Q21.125 -34.84375,24.359375 -32.671875 Q27.609375 -30.515625,29.375 -26.515625 Q31.15625 -22.515625,31.15625 -16.984375 Q31.15625 -11.515625,29.390625 -7.53125 Q27.640625 -3.546875,24.375 -1.390625 Q21.125 0.765625,16.640625 0.765625 Z M16.640625 -5.359375 Q20.015625 -5.359375,21.828125 -8.28125 Q23.640625 -11.21875,23.640625 -16.984375 Q23.640625 -20.859375,22.828125 -23.46875 Q22.015625 -26.078125,20.46875 -27.390625 Q18.921875 -28.71875,16.640625 -28.71875 Q14.375 -28.71875,12.796875 -27.390625 Q11.234375 -26.078125,10.421875 -23.46875 Q9.625 -20.859375,9.625 -16.984375 Q9.625 -11.21875,11.4375 -8.28125 Q13.25 -5.359375,16.640625 -5.359375 Z " fill="rgba(0,0,0,1.000)" transform="matrix(1,0,0,1,768.856,45)"/>
    <path d="M7.765625 -0 Q7.765625 -5.28125,9.09375 -10.15625 Q10.421875 -15.046875,12.8125 -19.4375 Q15.203125 -23.828125,18.390625 -27.59375 L0.953125 -27.59375 L0.953125 -34.078125 L26.296875 -34.078125 L26.296875 -28.015625 Q22.828125 -24.125,20.453125 -19.984375 Q18.078125 -15.859375,16.875 -10.96875 Q15.6875 -6.09375,15.6875 -0 Z " fill="rgba(0,0,0,1.000)" transform="matrix(1,0,0,1,827,45)"/>
    <path d="M16.1875 0.765625 Q11.90625 0.765625,8.984375 -0.5 Q6.078125 -1.765625,4.5 -4.078125 Q2.921875 -6.390625,2.640625 -9.484375 L10.5625 -9.84375 Q10.984375 -7.765625,12.40625 -6.75 Q13.84375 -5.75,16.1875 -5.75 Q18.875 -5.75,20.375 -7.234375 Q21.890625 -8.71875,21.890625 -11.421875 Q21.890625 -13.109375,21.1875 -14.390625 Q20.484375 -15.671875,19.21875 -16.390625 Q17.953125 -17.125,16.15625 -17.125 Q14.140625 -17.125,12.734375 -16.234375 Q11.34375 -15.34375,10.765625 -14.015625 L2.984375 -14.015625 L5.375 -34.078125 L27.578125 -34.078125 L27.578125 -27.59375 L11.984375 -27.59375 L10.796875 -18.078125 L9.953125 -18.78125 Q10.75 -20,11.96875 -20.875 Q13.203125 -21.765625,14.84375 -22.25 Q16.484375 -22.734375,18.46875 -22.734375 Q22.015625 -22.734375,24.5625 -21.25 Q27.125 -19.78125,28.515625 -17.21875 Q29.90625 -14.65625,29.90625 -11.421875 Q29.90625 -7.671875,28.21875 -4.921875 Q26.53125 -2.171875,23.4375 -0.703125 Q20.359375 0.765625,16.1875 0.765625 Z " fill="rgba(0,0,0,1.000)" transform="matrix(1,0,0,1,853.304,45)"/>
    <path d="M16.765625 0.765625 Q12.234375 0.765625,8.921875 -1.375 Q5.609375 -3.515625,3.828125 -7.5 Q2.0625 -11.484375,2.0625 -16.984375 Q2.0625 -22.5,3.84375 -26.5 Q5.640625 -30.515625,8.9375 -32.671875 Q12.234375 -34.84375,16.765625 -34.84375 Q21.3125 -34.84375,24.578125 -32.671875 Q27.859375 -30.515625,29.640625 -26.515625 Q31.4375 -22.515625,31.4375 -16.984375 Q31.4375 -11.515625,29.65625 -7.53125 Q27.890625 -3.546875,24.59375 -1.390625 Q21.3125 0.765625,16.765625 0.765625 Z M16.765625 -5.71875 Q19.96875 -5.71875,21.671875 -8.53125 Q23.390625 -11.359375,23.390625 -16.984375 Q23.390625 -20.765625,22.625 -23.28125 Q21.875 -25.8125,20.40625 -27.078125 Q18.9375 -28.359375,16.765625 -28.359375 Q14.609375 -28.359375,13.125 -27.078125 Q11.640625 -25.8125,10.875 -23.28125 Q10.109375 -20.765625,10.109375 -16.984375 Q10.109375 -11.359375,11.8125 -8.53125 Q13.53125 -5.71875,16.765625 -5.71875 Z " fill="rgba(0,0,0,1.000)" transform="matrix(1,0,0,1,884.936,45)"/>
    <path d="M16.421875 0.765625 Q11.84375 0.765625,8.5 -0.359375 Q5.171875 -1.5,3.34375 -3.734375 Q1.53125 -5.96875,1.53125 -9.25 Q1.53125 -13.09375,3.984375 -15.59375 Q6.453125 -18.09375,10.59375 -18.734375 L10.6875 -17.734375 Q7.234375 -18.3125,5.21875 -20.375 Q3.203125 -22.4375,3.203125 -25.484375 Q3.203125 -28.296875,4.703125 -30.40625 Q6.21875 -32.515625,9.15625 -33.671875 Q12.109375 -34.84375,16.421875 -34.84375 Q20.71875 -34.84375,23.671875 -33.671875 Q26.625 -32.515625,28.125 -30.40625 Q29.625 -28.296875,29.625 -25.484375 Q29.625 -22.4375,27.609375 -20.40625 Q25.609375 -18.390625,22.140625 -17.734375 L22.234375 -18.734375 Q26.390625 -18.0625,28.84375 -15.578125 Q31.296875 -13.09375,31.296875 -9.25 Q31.296875 -5.96875,29.5 -3.734375 Q27.703125 -1.5,24.359375 -0.359375 Q21.03125 0.765625,16.421875 0.765625 Z M16.421875 -6.109375 Q19.25 -6.109375,20.984375 -7.3125 Q22.71875 -8.53125,22.71875 -10.640625 Q22.71875 -12.765625,21.03125 -14.0625 Q19.34375 -15.375,16.421875 -15.375 Q13.5 -15.375,11.8125 -14.0625 Q10.125 -12.765625,10.125 -10.640625 Q10.125 -8.53125,11.84375 -7.3125 Q13.578125 -6.109375,16.421875 -6.109375 Z M16.421875 -20.90625 Q18.625 -20.90625,19.890625 -21.765625 Q21.15625 -22.640625,21.15625 -24.453125 Q21.15625 -26.09375,19.953125 -27.0625 Q18.765625 -28.046875,16.421875 -28.046875 Q14.125 -28.046875,12.890625 -27.0625 Q11.671875 -26.09375,11.671875 -24.453125 Q11.671875 -22.640625,12.9375 -21.765625 Q14.203125 -20.90625,16.421875 -20.90625 Z " fill="rgba(0,0,0,1.000)" transform="matrix(1,0,0,1,943,45)"/>
    <path d="M16.890625 0.765625 Q12.296875 0.765625,8.9375 -1.375 Q5.59375 -3.515625,3.796875 -7.5 Q2.015625 -11.484375,2.015625 -16.984375 Q2.015625 -22.5,3.828125 -26.5 Q5.640625 -30.515625,8.96875 -32.671875 Q12.296875 -34.84375,16.890625 -34.84375 Q21.484375 -34.84375,24.796875 -32.671875 Q28.109375 -30.515625,29.921875 -26.515625 Q31.734375 -22.515625,31.734375 -16.984375 Q31.734375 -11.515625,29.9375 -7.53125 Q28.140625 -3.546875,24.8125 -1.390625 Q21.484375 0.765625,16.890625 0.765625 Z M16.890625 -6.0625 Q19.921875 -6.0625,21.53125 -8.765625 Q23.140625 -11.484375,23.140625 -16.984375 Q23.140625 -20.671875,22.421875 -23.109375 Q21.71875 -25.5625,20.328125 -26.78125 Q18.9375 -28.015625,16.890625 -28.015625 Q14.84375 -28.015625,13.4375 -26.78125 Q12.03125 -25.5625,11.3125 -23.109375 Q10.59375 -20.671875,10.59375 -16.984375 Q10.59375 -11.484375,12.203125 -8.765625 Q13.828125 -6.0625,16.890625 -6.0625 Z " fill="rgba(0,0,0,1.000)" transform="matrix(1,0,0,1,975.83203,45)"/>
    <path d="M16.890625 0.765625 Q12.296875 0.765625,8.9375 -1.375 Q5.59375 -3.515625,3.796875 -7.5 Q2.015625 -11.484375,2.015625 -16.984375 Q2.015625 -22.5,3.828125 -26.5 Q5.640625 -30.515625,8.96875 -32.671875 Q12.296875 -34.84375,16.890625 -34.84375 Q21.484375 -34.84375,24.796875 -32.671875 Q28.109375 -30.515625,29.921875 -26.515625 Q31.734375 -22.515625,31.734375 -16.984375 Q31.734375 -11.515625,29.9375 -7.53125 Q28.140625 -3.546875,24.8125 -1.390625 Q21.484375 0.765625,16.890625 0.765625 Z M16.890625 -6.0625 Q19.921875 -6.0625,21.53125 -8.765625 Q23.140625 -11.484375,23.140625 -16.984375 Q23.140625 -20.671875,22.421875 -23.109375 Q21.71875 -25.5625,20.328125 -26.78125 Q18.9375 -28.015625,16.890625 -28.015625 Q14.84375 -28.015625,13.4375 -26.78125 Q12.03125 -25.5625,11.3125 -23.109375 Q10.59375 -20.671875,10.59375 -16.984375 Q10.59375 -11.484375,12.203125 -8.765625 Q13.828125 -6.0625,16.890625 -6.0625 Z " fill="rgba(0,0,0,1.000)" transform="matrix(1,0,0,1,1010.056,45)"/>
    <path d="M16.65625 0.765625 Q11.96875 0.765625,8.5625 -0.359375 Q5.171875 -1.5,3.328125 -3.734375 Q1.484375 -5.96875,1.484375 -9.234375 Q1.484375 -13.09375,3.96875 -15.609375 Q6.46875 -18.125,10.671875 -18.71875 L10.765625 -17.71875 Q7.234375 -18.28125,5.1875 -20.359375 Q3.15625 -22.453125,3.15625 -25.484375 Q3.15625 -28.3125,4.671875 -30.421875 Q6.203125 -32.53125,9.203125 -33.6875 Q12.21875 -34.84375,16.65625 -34.84375 Q21.09375 -34.84375,24.09375 -33.6875 Q27.109375 -32.53125,28.625 -30.421875 Q30.15625 -28.3125,30.15625 -25.484375 Q30.15625 -22.453125,28.109375 -20.40625 Q26.078125 -18.359375,22.546875 -17.71875 L22.640625 -18.71875 Q26.859375 -18.078125,29.34375 -15.578125 Q31.828125 -13.09375,31.828125 -9.234375 Q31.828125 -5.96875,30 -3.734375 Q28.171875 -1.5,24.78125 -0.359375 Q21.390625 0.765625,16.65625 0.765625 Z M16.65625 -6.46875 Q19.375 -6.46875,21.03125 -7.625 Q22.703125 -8.796875,22.703125 -10.765625 Q22.703125 -12.796875,21.0625 -14.03125 Q19.421875 -15.265625,16.65625 -15.265625 Q13.90625 -15.265625,12.25 -14.03125 Q10.609375 -12.796875,10.609375 -10.765625 Q10.609375 -8.796875,12.265625 -7.625 Q13.9375 -6.46875,16.65625 -6.46875 Z M16.65625 -21.015625 Q18.75 -21.015625,19.953125 -21.8125 Q21.15625 -22.625,21.15625 -24.328125 Q21.15625 -25.859375,20.015625 -26.78125 Q18.890625 -27.703125,16.65625 -27.703125 Q14.484375 -27.703125,13.3125 -26.78125 Q12.15625 -25.859375,12.15625 -24.328125 Q12.15625 -22.625,13.359375 -21.8125 Q14.5625 -21.015625,16.65625 -21.015625 Z " fill="rgba(0,0,0,1.000)" transform="matrix(1,0,0,1,1068,45)"/>
    <path d="M16.53125 0.765625 Q12.0625 0.765625,9.0625 -0.515625 Q6.0625 -1.796875,4.453125 -4.15625 Q2.859375 -6.515625,2.578125 -9.6875 L11.515625 -10.0625 Q11.953125 -8.21875,13.1875 -7.34375 Q14.4375 -6.46875,16.53125 -6.46875 Q18.96875 -6.46875,20.296875 -7.78125 Q21.640625 -9.109375,21.640625 -11.546875 Q21.640625 -13.046875,21 -14.1875 Q20.359375 -15.34375,19.234375 -16 Q18.109375 -16.65625,16.515625 -16.65625 Q14.609375 -16.65625,13.34375 -15.796875 Q12.09375 -14.9375,11.59375 -13.765625 L2.859375 -13.765625 L5.28125 -34.078125 L28.359375 -34.078125 L28.359375 -26.890625 L12.703125 -26.890625 L11.59375 -18.25 L10.75 -18.9375 Q11.546875 -20.078125,12.75 -20.921875 Q13.96875 -21.78125,15.59375 -22.265625 Q17.234375 -22.75,19.28125 -22.75 Q22.859375 -22.75,25.40625 -21.28125 Q27.953125 -19.8125,29.328125 -17.265625 Q30.703125 -14.734375,30.703125 -11.546875 Q30.703125 -7.703125,28.96875 -4.9375 Q27.25 -2.171875,24.046875 -0.703125 Q20.859375 0.765625,16.53125 0.765625 Z " fill="rgba(0,0,0,1.000)" transform="matrix(1,0,0,1,1101.312,45)"/>
    <path d="M17.015625 0.765625 Q12.359375 0.765625,8.96875 -1.375 Q5.578125 -3.515625,3.765625 -7.5 Q1.96875 -11.484375,1.96875 -16.984375 Q1.96875 -22.5,3.796875 -26.515625 Q5.625 -30.53125,8.984375 -32.6875 Q12.359375 -34.84375,17.015625 -34.84375 Q21.65625 -34.84375,25 -32.6875 Q28.359375 -30.53125,30.1875 -26.515625 Q32.015625 -22.515625,32.015625 -16.984375 Q32.015625 -11.515625,30.203125 -7.53125 Q28.40625 -3.546875,25.03125 -1.390625 Q21.65625 0.765625,17.015625 0.765625 Z M17.015625 -6.421875 Q19.875 -6.421875,21.390625 -9.015625 Q22.90625 -11.625,22.90625 -16.984375 Q22.90625 -20.59375,22.234375 -22.953125 Q21.5625 -25.3125,20.25 -26.484375 Q18.953125 -27.65625,17.015625 -27.65625 Q15.078125 -27.65625,13.75 -26.484375 Q12.421875 -25.3125,11.75 -22.953125 Q11.078125 -20.59375,11.078125 -16.984375 Q11.078125 -11.625,12.59375 -9.015625 Q14.109375 -6.421875,17.015625 -6.421875 Z " fill="rgba(0,0,0,1.000)" transform="matrix(1,0,0,1,1133.6641,45)"/>
    <path d="M14.828125 0.765625 Q9.75 0.765625,6.640625 -1.46875 Q3.546875 -3.703125,2.15625 -8.40625 L10.890625 -8.875 Q11.375 -7.734375,12.359375 -7.15625 Q13.34375 -6.578125,14.828125 -6.578125 Q17.953125 -6.578125,19.265625 -8.6875 Q20.59375 -10.796875,20.59375 -15.890625 L21.453125 -15.359375 Q20.15625 -13.203125,18.09375 -12.21875 Q16.03125 -11.234375,12.8125 -11.234375 Q9.40625 -11.234375,6.828125 -12.625 Q4.265625 -14.015625,2.84375 -16.515625 Q1.4375 -19.015625,1.4375 -22.375 Q1.4375 -26.203125,3.0625 -28.984375 Q4.703125 -31.78125,7.71875 -33.3125 Q10.75 -34.84375,14.828125 -34.84375 Q19.734375 -34.84375,23.015625 -32.921875 Q26.296875 -31.015625,27.921875 -27.1875 Q29.5625 -23.375,29.5625 -17.671875 Q29.5625 -13.109375,28.59375 -9.640625 Q27.640625 -6.1875,25.796875 -3.875 Q23.953125 -1.578125,21.1875 -0.40625 Q18.4375 0.765625,14.828125 0.765625 Z M15.265625 -17.28125 Q16.703125 -17.28125,17.703125 -17.921875 Q18.71875 -18.578125,19.25 -19.75 Q19.78125 -20.921875,19.78125 -22.5625 Q19.78125 -24.234375,19.25 -25.40625 Q18.71875 -26.59375,17.703125 -27.21875 Q16.703125 -27.84375,15.265625 -27.84375 Q13.921875 -27.84375,12.890625 -27.21875 Q11.859375 -26.59375,11.296875 -25.40625 Q10.75 -24.234375,10.75 -22.5625 Q10.75 -20.921875,11.296875 -19.75 Q11.859375 -18.578125,12.859375 -17.921875 Q13.875 -17.28125,15.265625 -17.28125 Z " fill="rgba(0,0,0,1.000)" transform="matrix(1,0,0,1,0,103)"/>
    <path d="M17.140625 0.765625 Q12.4375 0.765625,9 -1.359375 Q5.5625 -3.5,3.734375 -7.484375 Q1.921875 -11.46875,1.921875 -16.984375 Q1.921875 -22.515625,3.765625 -26.515625 Q5.609375 -30.53125,9.015625 -32.6875 Q12.4375 -34.84375,17.140625 -34.84375 Q21.84375 -34.84375,25.21875 -32.6875 Q28.609375 -30.53125,30.453125 -26.515625 Q32.296875 -22.515625,32.296875 -16.984375 Q32.296875 -11.515625,30.46875 -7.53125 Q28.65625 -3.546875,25.25 -1.390625 Q21.84375 0.765625,17.140625 0.765625 Z M17.140625 -6.765625 Q19.828125 -6.765625,21.234375 -9.265625 Q22.65625 -11.765625,22.65625 -16.984375 Q22.65625 -20.5,22.03125 -22.78125 Q21.40625 -25.0625,20.171875 -26.1875 Q18.953125 -27.3125,17.140625 -27.3125 Q15.3125 -27.3125,14.0625 -26.1875 Q12.8125 -25.0625,12.1875 -22.78125 Q11.5625 -20.5,11.5625 -16.984375 Q11.5625 -11.765625,12.984375 -9.265625 Q14.40625 -6.765625,17.140625 -6.765625 Z " fill="rgba(0,0,0,1.000)" transform="matrix(1,0,0,1,31.968,103)"/>
    <path d="M17.140625 0.765625 Q12.4375 0.765625,9 -1.359375 Q5.5625 -3.5,3.734375 -7.484375 Q1.921875 -11.46875,1.921875 -16.984375 Q1.921875 -22.515625,3.765625 -26.515625 Q5.609375 -30.53125,9.015625 -32.6875 Q12.4375 -34.84375,17.140625 -34.84375 Q21.84375 -34.84375,25.21875 -32.6875 Q28.609375 -30.53125,30.453125 -26.515625 Q32.296875 -22.515625,32.296875 -16.984375 Q32.296875 -11.515625,30.46875 -7.53125 Q28.65625 -3.546875,25.25 -1.390625 Q21.84375 0.765625,17.140625 0.765625 Z M17.140625 -6.765625 Q19.828125 -6.765625,21.234375 -9.265625 Q22.65625 -11.765625,22.65625 -16.984375 Q22.65625 -20.5,22.03125 -22.78125 Q21.40625 -25.0625,20.171875 -26.1875 Q18.953125 -27.3125,17.140625 -27.3125 Q15.3125 -27.3125,14.0625 -26.1875 Q12.8125 -25.0625,12.1875 -22.78125 Q11.5625 -20.5,11.5625 -16.984375 Q11.5625 -11.765625,12.984375 -9.265625 Q14.40625 -6.765625,17.140625 -6.765625 Z " fill="rgba(0,0,0,1.000)" transform="matrix(1,0,0,1,66.672,103)"/>

</svg>
